<?xml version="1.0" encoding="utf-8"?>
<!-- Generator: Adobe Illustrator 16.0.0, SVG Export Plug-In . SVG Version: 6.00 Build 0)  -->
<!DOCTYPE svg PUBLIC "-//W3C//DTD SVG 1.1//EN" "http://www.w3.org/Graphics/SVG/1.1/DTD/svg11.dtd">
<svg version="1.1" id="Layer_1" xmlns="http://www.w3.org/2000/svg" xmlns:xlink="http://www.w3.org/1999/xlink" x="0px" y="0px"
	 width="762.594px" height="79px" viewBox="0 0 762.594 79" enable-background="new 0 0 762.594 79" xml:space="preserve">
<g>
	<path fill-rule="evenodd" clip-rule="evenodd" fill="#FFFFFF" d="M13.024,45.298c-4.259-0.521-6.854-3.078-8.429-6.888
		c-0.221-0.532-0.045-1.336-0.929-1.448c0-0.367,0-0.732,0-1.099c0.465-6.053,0.465-12.104,0-18.155c0-0.551,0-1.101,0-1.652
		c1.08-0.526,0.925-1.755,1.391-2.619c2.007-3.723,5.176-5.509,9.205-5.545c12.734-0.114,25.469-0.054,38.204-0.091
		c0.693-0.002,1.198,0.309,1.761,0.571c0.634,3.098,0.308,6.211,0.164,9.321c-0.224,0.22-0.448,0.439-0.672,0.656
		c-5.21,0.403-10.43,0.119-15.645,0.161c-6.87,0.056-13.743,0.005-20.613,0.027c-0.896,0.004-1.836-0.253-2.685,0.273
		c-0.412,5.132-0.276,10.266-0.066,15.401c0.845,0.517,1.778,0.271,2.668,0.273c8.83,0.02,17.658,0.006,26.487,0.02
		c0.902,0,1.823-0.154,2.707,0.17c6.38,1.088,9.515,4.217,10.559,10.548c0.262,5.681,0.304,11.36-0.02,17.04
		c-0.961,5.802-4.869,9.317-9.991,10.01c-5.645,0.379-11.296,0.109-16.944,0.153c-6.84,0.053-13.681,0.021-20.522,0.001
		c-0.896-0.001-1.828,0.227-2.686-0.25c-0.825-3.186-0.333-6.412-0.302-9.624c0.007-0.575,0.477-0.689,0.858-0.895
		c1.251-0.417,2.541-0.19,3.809-0.192c10.881-0.022,21.764-0.045,32.644,0.021c1.72,0.01,2.455-0.338,2.379-2.252
		c-0.149-3.835-0.153-7.683,0.002-11.517c0.077-1.91-0.63-2.281-2.359-2.268c-9.325,0.069-18.653,0.04-27.979,0.024
		C15.02,45.471,14.005,45.643,13.024,45.298z"/>
	<path fill-rule="evenodd" clip-rule="evenodd" fill="#FFFFFF" d="M760.188,8.869c0.16-0.023,0.318-0.011,0.475,0.038
		c0,20.904,0,41.809,0,62.715c-0.186-0.002-0.371-0.002-0.557-0.004c-1.01-1.037-0.876-2.369-0.878-3.634
		c-0.024-18.508-0.026-37.016,0.005-55.524C759.234,11.201,759.087,9.856,760.188,8.869z"/>
	<path fill-rule="evenodd" clip-rule="evenodd" fill="#FFFFFF" d="M3.666,17.708c0.688,0.25,0.545,0.851,0.546,1.364
		c0.014,5.242,0.017,10.484,0.021,15.727c0.001,0.457-0.006,0.907-0.568,1.064C3.666,29.81,3.666,23.759,3.666,17.708z"/>
	<path fill-rule="evenodd" clip-rule="evenodd" fill="#FFFFFF" d="M67.49,72.267c-0.218-0.218-0.433-0.435-0.65-0.651
		c-0.255-0.614-0.172-1.261-0.172-1.896c-0.004-19.822-0.004-39.644,0-59.467c0-0.634-0.091-1.28,0.188-1.89
		c3.264-1.081,6.595-0.671,9.87-0.237c1.896,0.25,2.173,2.261,2.78,3.709c5.912,14.105,11.778,28.228,17.662,42.344
		c0.207,0.497,0.461,0.972,0.938,1.965c1.675-3.979,3.188-7.537,4.671-11.105c2.109-5.077,4.191-10.165,6.3-15.242
		c2.479-5.961,5.105-11.865,7.407-17.893c1.303-3.412,1.778-4.059,5.317-4.083c1.925-0.013,3.85,0.025,5.772-0.009
		c1.382-0.022,2.038,0.614,2.012,1.984c-0.009,0.457,0.001,0.915,0.001,1.375c0,19.242,0,38.487-0.001,57.731
		c0,1.083,0.166,2.196-0.523,3.168c-3.09,0.703-6.201,0.387-9.309,0.168c-0.222-0.211-0.443-0.421-0.665-0.632
		c-0.368-10.881-0.038-21.767-0.195-32.649c-0.012-0.837,0.682-2.015-0.695-2.532c-3.524,8.289-7.058,16.577-10.57,24.87
		c-1.151,2.72-2.226,5.473-3.378,8.193c-0.459,1.083-1.022,2.122-2.114,2.734c-2.562,0.38-5.125,0.317-7.689,0.029
		c-2.11-0.298-2.528-2.241-3.065-3.667c-2.425-6.426-5.229-12.688-7.908-19.002c-1.769-4.168-3.378-8.404-5.059-12.61
		c-1.458,0.427-0.72,1.623-0.725,2.419c-0.059,9.563-0.032,19.126-0.046,28.692c-0.001,0.994,0.161,2.003-0.16,2.982
		c-0.224,0.347-0.447,0.693-0.67,1.04C73.715,72.759,70.601,72.438,67.49,72.267z"/>
	<path fill-rule="evenodd" clip-rule="evenodd" fill="#FFFFFF" d="M531.268,45.321c-0.095-0.159-0.229-0.213-0.405-0.162
		c-0.868-3.253-0.33-6.552-0.301-9.834c0.233-0.218,0.466-0.434,0.698-0.654c9.349-0.293,18.695-0.286,28.042-0.004
		c3.135,0.604,5.203,2.368,5.234,5.662c0.066,7.121,0.309,14.246-0.135,21.365c-0.376,6.033-3.881,9.248-9.5,10.565
		c-6.18,0.405-12.363,0.142-18.544,0.158c-4.998,0.01-10.004,0.231-15.001-0.148c-5.41-0.445-9.39-3.649-10-10.557
		c-0.391-2.993-0.152-6.001-0.16-9.003c-0.037-10.485-0.021-20.973-0.007-31.458c0.002-0.996-0.168-2.008,0.173-2.986
		c0.841-7.598,5.412-10.49,11.91-10.46c11.972,0.053,23.944,0.058,35.916-0.025c2.174-0.013,3.042,0.724,2.811,2.859
		c-0.271,2.508,0.523,5.088-0.514,7.546c-0.91,0.658-1.955,0.322-2.926,0.325c-11.262,0.027-22.524,0.063-33.785-0.027
		c-1.976-0.016-2.677,0.398-2.659,2.541c0.106,12.635,0.079,25.271,0.021,37.905c-0.009,1.753,0.234,2.601,2.33,2.574
		c9.246-0.114,18.492-0.047,27.741-0.051c0.541,0,1.105,0.087,1.584-0.28c0.253-5.135,0.365-10.272-0.056-15.405
		c-3.542-0.627-7.109-0.15-10.663-0.273C539.137,45.352,535.198,45.69,531.268,45.321z"/>
	<path fill-rule="evenodd" clip-rule="evenodd" fill="#FFFFFF" d="M490.548,72.23c-0.906-0.07-1.403-0.644-1.887-1.354
		c-9.404-13.832-18.849-27.634-28.206-41.496c-0.642-0.949-1.794-1.573-1.938-2.856c-1.363,0.544-0.674,1.731-0.678,2.575
		c-0.054,13.174-0.035,26.348-0.048,39.521c0,0.999,0.177,2.012-0.177,2.993c-0.213,0.204-0.425,0.41-0.638,0.615
		c-3.114,0.346-6.226,0.341-9.339,0.005c-0.892-0.699-0.511-1.689-0.511-2.541C447.1,50,447.146,30.307,447.05,10.615
		c-0.011-2.368,0.843-2.588,2.944-2.899c6.523-0.967,10.271,1.672,13.74,7.252c7.776,12.504,16.419,24.469,24.727,36.643
		c0.457,0.669,1.071,1.231,1.61,1.845c1.417-0.5,0.713-1.702,0.716-2.537c0.054-13.001,0.034-26.005,0.048-39.009
		c0.003-0.999-0.169-2.015,0.167-2.998c0.128-0.317,0.249-0.911,0.378-0.913c3.37-0.038,6.77-0.779,10.091,0.38
		c0.561,0.629,0.33,1.397,0.33,2.104c0.014,19.668,0.014,39.336,0.003,59.006c-0.003,0.709,0.215,1.474-0.316,2.113
		c-0.172,0.168-0.342,0.339-0.513,0.506C497.506,72.711,494.026,72.497,490.548,72.23z"/>
	<path fill-rule="evenodd" clip-rule="evenodd" fill="#FFFFFF" d="M696.948,61.711c-0.628,5.694-4.303,9.753-10.014,10.561
		c-5.643,0.379-11.296,0.109-16.942,0.153c-6.842,0.053-13.683,0.021-20.524,0.001c-0.896-0.001-1.826,0.225-2.684-0.246
		c-0.837-3.189-0.334-6.422-0.31-9.639c0.006-0.58,0.489-0.676,0.865-0.884c1.249-0.417,2.538-0.19,3.808-0.192
		c10.882-0.022,21.763-0.045,32.645,0.021c1.719,0.01,2.453-0.336,2.379-2.252c-0.15-3.835-0.154-7.683,0.002-11.517
		c0.077-1.91-0.631-2.281-2.358-2.268c-9.326,0.069-18.654,0.04-27.982,0.024c-0.996-0.002-2.011,0.17-2.991-0.175
		c-5.023-0.3-9.41-5.878-9.174-11.164c0.228-5.003-0.07-10.031-0.137-15.049c0.467-0.96-0.005-2.058,0.433-3.022
		c0.999-4.668,4.597-8.035,9.639-8.113c12.982-0.204,25.971-0.112,38.955-0.103c0.496,0,0.991,0.342,1.485,0.524
		c0.634,3.098,0.312,6.211,0.161,9.324c-0.222,0.217-0.445,0.437-0.669,0.653c-5.212,0.403-10.43,0.119-15.646,0.161
		c-6.87,0.058-13.743,0.005-20.615,0.027c-0.894,0.004-1.835-0.253-2.686,0.273c-0.414,5.132-0.277,10.266-0.065,15.401
		c0.844,0.517,1.776,0.271,2.669,0.273c8.828,0.02,17.66,0.006,26.488,0.02c0.902,0,1.822-0.154,2.706,0.17
		c6.381,1.085,9.505,4.208,10.558,10.548C697.226,50.718,697.221,56.216,696.948,61.711z"/>
	<path fill-rule="evenodd" clip-rule="evenodd" fill="#FFFFFF" d="M205.058,18.134c0.022-1.556,0.064-3.112,0.064-4.667
		c0.002-3.754,1.675-5.534,5.36-5.576c12.453-0.141,24.91-0.183,37.363,0.018c5.867,0.096,10.362,4.871,10.48,10.745
		c0.146,7.231,0.174,14.472-0.016,21.703c-0.13,4.907-2.895,8.375-7.378,10.084c-1.726,0.661-1.36,1.148-0.763,2.178
		c3.13,5.373,6.264,10.74,9.373,16.122c0.6,1.039,1.717,2.053,0.47,3.369c-3.286,0.618-6.581,0.398-9.878,0.112
		c-2.856-0.972-3.063-3.96-4.415-6.026c-2.912-4.446-5.495-9.111-8.144-13.727c-0.45-0.786-0.851-1.305-1.82-1.28
		c-6.577,0.172-13.16-0.316-19.73,0.268c-0.667,5.923-0.076,11.868-0.309,17.799c-0.036,0.951,0.445,2.012-0.403,2.862l-0.226-0.006
		l-0.174,0.146c-3.116,0.267-6.233,0.367-9.342-0.069c-0.75-0.967-0.434-2.102-0.438-3.16c-0.029-8.048-0.002-16.098-0.031-24.147
		c-0.005-1.258,0.188-2.561-0.594-4.157c2.291,0,4.43,0,6.567,0c6.716-0.406,13.437-0.057,20.152-0.184
		c1.082-0.018,2.185,0.187,3.239-0.23c4.305-0.063,8.607-0.125,12.912-0.188c0.646-3.77,0.226-7.569,0.25-11.352
		c0.02-3.334,0.338-6.685-0.22-10.006l0.014,0.017c-0.956-0.48-1.979-0.241-2.969-0.244c-12.168-0.018-24.337,0-36.503-0.034
		C206.99,18.501,205.936,18.897,205.058,18.134z"/>
	<path fill-rule="evenodd" clip-rule="evenodd" fill="#FFFFFF" d="M152.193,56.213c-1.54,4.057-2.195,8.348-3.296,12.521
		c-0.377,1.43-0.842,2.742-2.203,3.53c-2.743,0.287-5.489,0.275-8.233,0.009c-1.366-0.57-1.089-1.802-0.857-2.739
		c2.454-9.935,5.271-19.792,7.402-29.793c1.553-7.284,3.539-14.451,5.27-21.68c1.34-5.603,5.52-9.07,11.33-9.981
		c3.713-0.583,7.542-0.616,11.245-0.052c6.657,1.014,10.626,5.339,12.22,11.641c4.123,16.313,8.047,32.674,12.017,49.024
		c0.287,1.179,0.857,2.484-0.331,3.57c-2.748,0.272-5.492,0.324-8.236-0.034c-3.19-0.856-2.622-3.881-3.188-6.019
		c-2.062-7.792-3.777-15.677-5.666-23.516c-1.541-6.4-3.158-12.779-4.708-19.178c-0.484-2.001-0.994-3.933-3.196-4.759
		c-2.871-0.331-5.74-0.434-8.608,0.034c-1.757,0.015-2.329,1.438-2.651,2.672c-1.924,7.385-3.709,14.808-5.552,22.216
		c-0.434,1.75,0.682,1.65,1.841,1.646c5.946-0.019,11.894,0.121,17.832-0.076c2.136-0.071,2.868,0.826,3.318,2.583
		c0.579,2.261,1.249,4.5,1.878,6.747c0.296,2.123-1.37,1.31-2.201,1.316c-7.582,0.069-15.164,0.031-22.747,0.054
		C153.979,55.949,153.043,55.703,152.193,56.213z"/>
	<path fill-rule="evenodd" clip-rule="evenodd" fill="#FFFFFF" d="M760.188,8.869c-0.027,20.917-0.056,41.833-0.082,62.749
		c-0.185,0.204-0.368,0.407-0.551,0.608c-3.112,0.352-6.227,0.336-9.34,0.012c-0.974-0.876-0.508-2.031-0.52-3.049
		c-0.078-7.624-0.094-15.246-0.129-22.871c-0.755-0.504-1.606-0.274-2.409-0.274c-8.974-0.017-17.949-0.017-26.923,0
		c-0.806,0-1.654-0.228-2.408,0.271c-0.041,7.546-0.082,15.09-0.121,22.635c-0.006,1.073,0.17,2.179-0.536,3.134
		c-3.095,0.659-6.205,0.393-9.313,0.146c-0.218-0.208-0.432-0.414-0.649-0.621c-0.229-0.523-0.173-1.076-0.173-1.62
		c-0.002-20-0.002-39.999-0.002-59.998c0-0.546-0.044-1.099,0.15-1.627c3.064-1.208,6.243-0.45,9.356-0.414
		c1.433,0.015,1.161,1.61,1.162,2.675c0.012,7.136,0,14.273,0.012,21.411c0.001,0.907,0.098,1.815,0.151,2.725
		c0.752,0.503,1.599,0.271,2.399,0.273c8.956,0.018,17.911,0.018,26.867,0c0.8-0.002,1.647,0.233,2.399-0.273
		c0.048-7.656,0.078-15.31,0.148-22.963c0.042-4.531-0.573-3.903,3.857-3.975c1.459-0.025,2.919,0.033,4.376-0.019
		C758.882,7.771,759.72,7.892,760.188,8.869z"/>
	<path fill-rule="evenodd" clip-rule="evenodd" fill="#FFFFFF" d="M321.105,72.264c-2.063-0.745-1.143-1.77-0.293-2.838
		c3.473-4.355,6.936-8.714,10.38-13.091c3.831-4.864,7.566-9.809,11.508-14.583c0.922-1.118,0.662-1.722-0.013-2.572
		c-4.452-5.612-8.905-11.226-13.366-16.836c-3.088-3.877-6.213-7.723-9.265-11.625c-1.189-1.522-0.621-2.82,1.241-2.872
		c2.841-0.081,5.684,0.029,8.522-0.047c1.499-0.042,2.377,0.819,3.177,1.829c5.193,6.552,10.382,13.111,15.535,19.697
		c1.717,2.192,2.434,2.229,4.081,0.11c5.181-6.66,10.394-13.291,15.558-19.959c0.905-1.164,1.923-1.737,3.443-1.681
		c2.655,0.096,5.314,0.004,7.974,0.041c0.676,0.009,1.497-0.307,1.954,0.57c0.462,0.889,0.048,1.579-0.481,2.243
		c-4.473,5.625-8.947,11.247-13.419,16.872c-3.055,3.844-6.106,7.689-9.167,11.528c-0.779,0.98-0.9,1.702,0.043,2.879
		c7.271,9.074,14.402,18.263,21.632,27.372c0.771,0.972,1.312,1.734,0.344,2.81c-3.463,0.659-6.945,0.317-10.423,0.172
		c-3.251-0.802-4.193-3.982-6.034-6.135c-4.591-5.384-8.81-11.085-13.444-16.997c-3.739,4.708-7.24,9.281-10.92,13.705
		c-2.652,3.185-4.743,6.865-8.13,9.418C328.063,72.547,324.584,72.553,321.105,72.264z"/>
	<path fill-rule="evenodd" clip-rule="evenodd" fill="#FFFFFF" d="M436.618,35.243c0.218,0.21,0.433,0.421,0.647,0.631
		c0.204,3.112,0.454,6.226-0.131,9.326c-0.928,0.788-2.043,0.58-3.112,0.58c-10.515,0.006-21.03,0.049-31.543-0.038
		c-1.859-0.018-2.534,0.372-2.447,2.362c0.17,3.834,0.132,7.681,0.011,11.517c-0.051,1.704,0.479,2.141,2.158,2.129
		c10.606-0.079,21.213-0.041,31.818-0.036c1.07,0,2.184-0.197,3.119,0.568c0.563,3.103,0.352,6.216,0.118,9.33
		c-0.212,0.204-0.423,0.408-0.636,0.611c-2.069,0.452-4.17,0.212-6.252,0.197c-10.382-0.076-20.765,0.251-31.145-0.159
		c-5.254-0.029-10.146-5.897-9.898-10.973c0.42-8.589,0.067-17.217,0.038-25.828c0.474-0.638,1.168-0.403,1.774-0.406
		c14.714-0.011,29.426-0.011,44.141-0.009C435.734,35.046,436.191,35.041,436.618,35.243z"/>
	<path fill-rule="evenodd" clip-rule="evenodd" fill="#FFFFFF" d="M268.743,8.362c0.555-0.94,1.481-0.519,2.225-0.521
		c12.722-0.031,25.445-0.018,38.169-0.031c0.914-0.002,1.799,0,2.583,0.552c0.409,3.289,0.613,6.575-0.092,9.852l0.071-0.071
		c-2.45,0.851-4.978,0.192-7.465,0.372c-2.776,0.199-5.576-0.323-8.339,0.295c-0.063,2.545-0.174,5.092-0.179,7.638
		c-0.016,14.15-0.009,28.297-0.009,42.447c0,1.083,0.144,2.189-0.503,3.167c-3.089,0.745-6.201,0.363-9.305,0.194
		c-1.592-0.318-0.846-1.575-0.849-2.388c-0.044-16.033-0.027-32.063-0.046-48.093c0-0.987,0.25-2.015-0.249-2.968
		c-3.761-0.643-7.551-0.104-11.323-0.286c-1.346-0.067-2.708,0.208-4.038-0.188c-0.213-0.213-0.423-0.423-0.636-0.634
		C268.44,14.588,268.462,11.474,268.743,8.362z"/>
	<path fill-rule="evenodd" clip-rule="evenodd" fill="#FFFFFF" d="M584.625,72.269c-6.229-0.493-9.806-4.831-9.823-10.521
		c-0.056-17.293-0.021-34.583-0.063-51.876c-0.003-1.51,0.48-2.216,2.036-2.055c2.775,0.287,5.626-0.593,8.345,0.553
		c0.6,0.931,0.298,1.968,0.301,2.948c0.02,15.76,0.057,31.519-0.036,47.278c-0.015,2.232,0.534,2.926,2.849,2.917
		c8.144-0.032,16.292-0.312,24.435,0.138c1.045,0.595,1.102,1.589,1.013,2.612c-0.225,2.599,0.538,5.261-0.491,7.808
		c-0.146,0.109-0.291,0.311-0.436,0.311C603.374,72.385,593.997,72.633,584.625,72.269z"/>
	<path fill-rule="evenodd" clip-rule="evenodd" fill="#FFFFFF" d="M623.024,8.365c3.071-1.208,6.254-0.414,9.38-0.427
		c1.28-0.005,1.153,1.41,1.153,2.419c0,3.85,0,7.703,0,11.553c0,15.679,0.002,31.357-0.003,47.036c0,1.077,0.197,2.196-0.553,3.146
		c-3.093,0.695-6.207,0.329-9.317,0.184c-0.226-0.222-0.451-0.441-0.678-0.663c-0.275-0.989-0.14-1.999-0.14-2.997
		c-0.008-19.086-0.011-38.172,0-57.257C622.867,10.359,622.715,9.348,623.024,8.365z"/>
	<path fill-rule="evenodd" clip-rule="evenodd" fill="#FFFFFF" d="M437.287,17.695c-0.225,0.217-0.446,0.437-0.67,0.653
		c-3.097,0.396-6.206,0.152-9.306,0.161c-11.705,0.036-23.413,0.029-35.121-0.014c-0.929-0.002-2.01,0.51-2.813-0.443
		c-0.342-4.528,4.277-10.346,11.359-10.266c11.083,0.125,22.169,0.031,33.251,0.034c1.075,0,2.189-0.197,3.137,0.551
		C437.76,11.47,437.438,14.583,437.287,17.695z"/>
	<path fill-rule="evenodd" clip-rule="evenodd" fill="#FFFFFF" d="M553.791,61.169c-0.381,1.021-1.256,0.513-1.874,0.516
		c-9.247,0.038-18.497-0.027-27.742,0.071c-1.859,0.021-2.261-0.578-2.252-2.323c0.068-12.909,0.081-25.819-0.01-38.729
		c-0.015-2.008,0.657-2.407,2.504-2.394c11.262,0.076,22.523,0.042,33.786,0.031c1.096-0.001,2.187-0.104,3.282-0.158
		c-0.844,1.081-2.04,0.602-3.074,0.604c-10.996,0.038-21.994,0.074-32.989-0.021c-2.161-0.018-3.049,0.408-3.024,2.829
		c0.119,12.279,0.105,24.56,0.007,36.84c-0.018,2.189,0.635,2.802,2.797,2.778C534.729,61.107,544.263,61.169,553.791,61.169z"/>
	<path fill-rule="evenodd" clip-rule="evenodd" fill="#FFFFFF" d="M13.024,45.298c10.346,0.006,20.693,0.05,31.038-0.022
		c1.802-0.012,2.619,0.289,2.532,2.355c-0.169,4.022-0.113,8.058-0.017,12.085c0.037,1.527-0.366,2.039-1.97,2.03
		c-12.361-0.083-24.724-0.071-37.086-0.089c0.85-0.813,1.91-0.472,2.877-0.474c10.969-0.023,21.938-0.072,32.908,0.035
		c2.2,0.02,2.87-0.652,2.76-2.802c-0.164-3.192-0.187-6.404,0.006-9.592c0.142-2.364-0.517-3.158-3.012-3.117
		c-9.047,0.153-18.099,0.07-27.148,0.045C14.942,45.751,13.886,46.08,13.024,45.298z"/>
	<path fill-rule="evenodd" clip-rule="evenodd" fill="#FFFFFF" d="M652.841,45.298c10.345,0.006,20.692,0.05,31.036-0.022
		c1.802-0.012,2.618,0.291,2.532,2.356c-0.169,4.021-0.113,8.057-0.019,12.084c0.038,1.527-0.368,2.039-1.969,2.03
		c-12.362-0.083-24.722-0.071-37.082-0.089c0.849-0.813,1.909-0.472,2.877-0.474c10.968-0.023,21.938-0.072,32.908,0.035
		c2.2,0.02,2.868-0.652,2.761-2.802c-0.165-3.192-0.187-6.404,0.003-9.592c0.145-2.364-0.514-3.158-3.01-3.117
		c-9.048,0.153-18.099,0.07-27.149,0.045C654.76,45.751,653.704,46.08,652.841,45.298z"/>
	<path fill-rule="evenodd" clip-rule="evenodd" fill="#FFFFFF" d="M612.667,61.651c-8.406,0.02-16.815-0.029-25.222,0.11
		c-1.996,0.033-2.168-0.793-2.163-2.407c0.046-15.903,0.032-31.808,0.019-47.71c0-1.092-0.12-2.183-0.182-3.275
		c1.036,0.867,0.578,2.051,0.58,3.087c0.03,14.996,0,29.995,0.03,44.99c0.013,5.431-0.707,4.681,4.579,4.712
		c6.491,0.041,12.985-0.002,19.478,0.027C610.755,61.19,611.813,60.848,612.667,61.651z"/>
	<path fill-rule="evenodd" clip-rule="evenodd" fill="#FFFFFF" d="M707.183,8.365c0.008,21.083,0.016,42.163,0.024,63.245
		c-0.731-0.771-0.449-1.736-0.449-2.623c-0.017-19.327-0.015-38.657,0-57.987C706.758,10.111,706.488,9.152,707.183,8.365z"/>
	<path fill-rule="evenodd" clip-rule="evenodd" fill="#FFFFFF" d="M501.487,71.604c0.042-11.822,0.116-23.642,0.118-35.463
		c0-9.252-0.086-18.506-0.135-27.76c1.021,0.748,0.607,1.847,0.609,2.793c0.022,19.207,0.022,38.416,0,57.625
		C502.078,69.748,502.483,70.841,501.487,71.604z"/>
	<path fill-rule="evenodd" clip-rule="evenodd" fill="#FFFFFF" d="M66.855,8.362C66.85,29.445,66.844,50.53,66.84,71.615
		c-0.724-0.774-0.448-1.74-0.449-2.626c-0.015-19.337-0.015-38.674,0.001-58.01C66.392,10.093,66.11,9.128,66.855,8.362z"/>
	<path fill-rule="evenodd" clip-rule="evenodd" fill="#FFFFFF" d="M623.024,8.365c-0.005,21.081-0.012,42.165-0.018,63.248
		c-0.69-0.79-0.421-1.749-0.421-2.637c-0.017-19.328-0.017-38.655,0-57.985C622.586,10.104,622.313,9.144,623.024,8.365z"/>
	<path fill-rule="evenodd" clip-rule="evenodd" fill="#FFFFFF" d="M436.618,35.243c-14.843-0.002-29.687-0.008-44.532,0.002
		c-0.906,0.002-1.814,0.141-2.722,0.215c0.495-0.958,1.406-0.69,2.185-0.692c14.338-0.01,28.678-0.009,43.016-0.004
		C435.28,34.764,436.044,34.614,436.618,35.243z"/>
	<path fill-rule="evenodd" clip-rule="evenodd" fill="#FFFFFF" d="M389.378,18.053c0.951,0.49,1.975,0.3,2.971,0.3
		c14.757,0.007,29.514,0,44.268-0.004c-0.771,0.73-1.732,0.45-2.615,0.45c-13.979,0.018-27.959,0.02-41.938-0.009
		C391.141,18.788,389.999,19.267,389.378,18.053z"/>
	<path fill-rule="evenodd" clip-rule="evenodd" fill="#FFFFFF" d="M457.614,71.612c0.013-14.412,0.026-28.824,0.048-43.233
		c0.002-0.812-0.16-1.732,0.166-2.399c0.231-0.473,0.64,0.083,0.688,0.543c-0.728,0.885-0.415,1.937-0.415,2.911
		c-0.021,13.096-0.006,26.191-0.028,39.288C458.07,69.692,458.406,70.753,457.614,71.612z"/>
	<path fill-rule="evenodd" clip-rule="evenodd" fill="#FFFFFF" d="M491.002,8.913c0.024,14.716,0.05,29.433,0.048,44.148
		c0,0.421,0.397,1.122-0.413,1.24c-0.145,0.021-0.376-0.548-0.565-0.846c0.791-0.862,0.454-1.924,0.454-2.893
		c0.022-12.918,0.01-25.835,0.03-38.753C490.556,10.838,490.228,9.779,491.002,8.913z"/>
	<path fill-rule="evenodd" clip-rule="evenodd" fill="#FFFFFF" d="M511.362,18.264c0,14.483-0.002,28.966-0.006,43.448
		c-0.668-0.681-0.451-1.547-0.451-2.348c-0.012-12.917-0.012-25.835,0-38.752C510.905,19.811,510.687,18.944,511.362,18.264z"/>
	<path fill-rule="evenodd" clip-rule="evenodd" fill="#FFFFFF" d="M205.058,18.134c3.372,0.477,6.761,0.181,10.14,0.197
		c9.888,0.049,19.778,0.004,29.668,0.043c0.846,0.004,1.827-0.461,2.556,0.407c-13.292,0.009-26.584,0.027-39.877,0.017
		C206.685,18.794,205.669,19.16,205.058,18.134z"/>
	<path fill-rule="evenodd" clip-rule="evenodd" fill="#FFFFFF" d="M6.966,72.177c13.385,0.033,26.769,0.065,40.152,0.096
		c-0.592,0.591-1.35,0.448-2.065,0.448c-11.932,0.005-23.866,0.007-35.797-0.005C8.464,72.716,7.591,72.941,6.966,72.177z"/>
	<path fill-rule="evenodd" clip-rule="evenodd" fill="#FFFFFF" d="M646.784,72.181c13.384,0.029,26.769,0.062,40.15,0.092
		c-0.592,0.591-1.35,0.448-2.064,0.448c-11.931,0.005-23.864,0.007-35.796-0.005C648.281,72.716,647.412,72.939,646.784,72.181z"/>
	<path fill-rule="evenodd" clip-rule="evenodd" fill="#FFFFFF" d="M14.775,18.81c0.685-0.943,1.669-0.433,2.491-0.435
		c12.15-0.038,24.302-0.027,36.452-0.027c-0.861,0.775-1.913,0.445-2.879,0.448C38.817,18.818,26.797,18.81,14.775,18.81z"/>
	<path fill-rule="evenodd" clip-rule="evenodd" fill="#FFFFFF" d="M654.588,18.81c0.685-0.945,1.671-0.433,2.491-0.435
		c12.15-0.038,24.304-0.027,36.455-0.027c-0.859,0.775-1.912,0.445-2.88,0.448C678.635,18.818,666.61,18.81,654.588,18.81z"/>
	<path fill-rule="evenodd" clip-rule="evenodd" fill="#FFFFFF" d="M77.482,71.064c0-11.86,0-23.722,0-35.94
		c0.599,0.655,0.924,1.148,0.932,1.847c-0.8,0.857-0.461,1.918-0.463,2.888c-0.026,9.435-0.006,18.868-0.03,28.304
		C77.918,69.137,78.244,70.193,77.482,71.064z"/>
	<path fill-rule="evenodd" clip-rule="evenodd" fill="#FFFFFF" d="M118.198,36.425c0.087-0.24,0.133-0.51,0.275-0.709
		c0.156-0.217,0.492-0.327,0.528,0.047c0.071,0.723,0.02,1.458,0.021,2.187c0.021,11.22,0.042,22.439,0.064,33.656
		c-0.757-0.873-0.43-1.927-0.432-2.901c-0.025-9.792-0.005-19.585-0.03-29.376C118.624,38.355,118.947,37.3,118.198,36.425z"/>
	<path fill-rule="evenodd" clip-rule="evenodd" fill="#FFFFFF" d="M399.225,72.262c12.467-0.014,24.933-0.024,37.396-0.038
		c-0.568,0.647-1.336,0.495-2.053,0.497c-11.09,0.005-22.18,0.005-33.268,0C400.581,72.719,399.814,72.865,399.225,72.262z"/>
	<path fill-rule="evenodd" clip-rule="evenodd" fill="#FFFFFF" d="M521.356,72.269c11.182-0.002,22.363-0.007,33.545-0.01
		c-0.589,0.606-1.353,0.46-2.071,0.462c-9.799,0.005-19.599,0.005-29.396,0C522.716,72.719,521.952,72.865,521.356,72.269z"/>
	<path fill-rule="evenodd" clip-rule="evenodd" fill="#FFFFFF" d="M749.53,34.762c-0.229,0.779-0.881,0.459-1.347,0.461
		c-9.654,0.018-19.313,0.018-28.967,0c-0.469-0.002-1.116,0.311-1.353-0.461C728.419,34.762,738.978,34.762,749.53,34.762z"/>
	<path fill-rule="evenodd" clip-rule="evenodd" fill="#FFFFFF" d="M717.827,46.315c0.169-0.826,0.843-0.517,1.308-0.52
		c9.709-0.018,19.421-0.018,29.132,0.003c0.458,0,1.138-0.32,1.301,0.52C738.985,46.315,728.406,46.315,717.827,46.315z"/>
	<path fill-rule="evenodd" clip-rule="evenodd" fill="#FFFFFF" d="M46.57,34.674c-10.184,0.024-20.366,0.054-30.55,0.063
		c-0.47,0-1.129,0.279-1.311-0.526c9.661,0,19.319-0.009,28.98,0.016C44.656,34.229,45.708,33.902,46.57,34.674z"/>
	<path fill-rule="evenodd" clip-rule="evenodd" fill="#FFFFFF" d="M686.386,34.674c-10.182,0.024-20.367,0.054-30.554,0.063
		c-0.47,0-1.128,0.279-1.31-0.526c9.662,0,19.322-0.009,28.983,0.016C684.473,34.229,685.524,33.902,686.386,34.674z"/>
	<path fill-rule="evenodd" clip-rule="evenodd" fill="#FFFFFF" d="M152.193,56.213c3.602-0.676,7.237-0.217,10.854-0.282
		c4.923-0.089,9.849-0.013,14.772-0.031c0.92-0.002,2.172,0.38,2.001-1.323c0.871,2.221-0.902,1.619-1.85,1.623
		C169.378,56.236,160.786,56.216,152.193,56.213z"/>
	<path fill-rule="evenodd" clip-rule="evenodd" fill="#FFFFFF" d="M584.625,72.269c9.521-0.065,19.042-0.133,28.563-0.197
		c-0.372,0.685-1.027,0.651-1.665,0.651c-8.462,0-16.922,0-25.383,0C585.587,72.723,585.046,72.702,584.625,72.269z"/>
	<path fill-rule="evenodd" clip-rule="evenodd" fill="#FFFFFF" d="M559.302,34.667c-9.347,0.002-18.693,0.002-28.042,0.004
		c0.505-0.525,1.16-0.458,1.797-0.458c8.149-0.002,16.298-0.002,24.445,0C558.138,34.213,558.796,34.144,559.302,34.667z"/>
	<path fill-rule="evenodd" clip-rule="evenodd" fill="#FFFFFF" d="M234.466,40.309c-7.788,0.685-15.592,0.417-23.391,0.415
		c0.589-0.6,1.35-0.457,2.064-0.455C220.25,40.275,227.356,40.293,234.466,40.309z"/>
	<path fill-rule="evenodd" clip-rule="evenodd" fill="#FFFFFF" d="M531.268,45.321c6.746-0.003,13.498-0.023,20.245,0.022
		c0.729,0.005,1.639-0.497,2.223,0.421c-6.532,0-13.063,0.013-19.594-0.013C533.177,45.746,532.13,46.066,531.268,45.321z"/>
	<path fill-rule="evenodd" clip-rule="evenodd" fill="#FFFFFF" d="M247.409,18.763c0.911,3.722,0.333,7.503,0.336,11.25
		c0.002,3.362,0.593,6.771-0.367,10.107C247.386,33,247.398,25.881,247.409,18.763z"/>
	<path fill-rule="evenodd" clip-rule="evenodd" fill="#FFFFFF" d="M215.313,72.117c0.88-3.142,0.244-6.35,0.417-9.524
		c0.199-3.707-0.343-7.438,0.295-11.137c0,5.986,0.021,11.972-0.02,17.958C216,70.339,216.457,71.455,215.313,72.117z"/>
	<path fill-rule="evenodd" clip-rule="evenodd" fill="#FFFFFF" d="M57.109,62.262c0.007-5.68,0.013-11.358,0.02-17.04
		c1.001,4.414,0.232,8.886,0.417,13.33C57.598,59.779,57.997,61.118,57.109,62.262z"/>
	<path fill-rule="evenodd" clip-rule="evenodd" fill="#FFFFFF" d="M696.948,61.711c-0.003-5.496-0.003-10.994-0.005-16.489
		c0.968,2.657,0.402,5.41,0.398,8.105C697.339,56.117,697.917,58.96,696.948,61.711z"/>
	<path fill-rule="evenodd" clip-rule="evenodd" fill="#FFFFFF" d="M295.896,18.81c1.843-1.003,3.826-0.33,5.737-0.43
		c3.351-0.179,6.711-0.167,10.066-0.234c-0.609,1.007-1.61,0.644-2.463,0.651C304.79,18.828,300.342,18.81,295.896,18.81z"/>
	<path fill-rule="evenodd" clip-rule="evenodd" fill="#FFFFFF" d="M269.394,18.333c4.378,0.004,8.759-0.019,13.137,0.042
		c0.732,0.011,1.641-0.492,2.224,0.432c-4.258,0.002-8.518,0.016-12.778-0.009C271.102,18.794,270.146,19.079,269.394,18.333z"/>
	<path fill-rule="evenodd" clip-rule="evenodd" fill="#FFFFFF" d="M321.105,72.264c3.479,0.003,6.958,0.005,10.437,0.008
		C328.063,73.016,324.584,73.025,321.105,72.264z"/>
	<path fill-rule="evenodd" clip-rule="evenodd" fill="#FFFFFF" d="M370.07,72.281c3.474-0.058,6.948-0.113,10.423-0.172
		C377.036,73.241,373.555,72.886,370.07,72.281z"/>
	<path fill-rule="evenodd" clip-rule="evenodd" fill="#FFFFFF" d="M490.548,72.23c3.475-0.041,6.95-0.08,10.427-0.121
		C497.512,73.193,494.032,72.953,490.548,72.23z"/>
	<path fill-rule="evenodd" clip-rule="evenodd" fill="#FFFFFF" d="M530.562,35.326c0.077,3.279-0.425,6.577,0.301,9.834
		C529.532,41.92,530.085,38.621,530.562,35.326z"/>
	<path fill-rule="evenodd" clip-rule="evenodd" fill="#FFFFFF" d="M311.628,18.214c0.608-3.276,0.488-6.563,0.092-9.852
		C312.628,11.656,312.788,14.941,311.628,18.214z"/>
	<path fill-rule="evenodd" clip-rule="evenodd" fill="#FFFFFF" d="M250.133,72.222c3.293-0.038,6.586-0.076,9.878-0.112
		C256.73,73.171,253.435,72.994,250.133,72.222z"/>
	<path fill-rule="evenodd" clip-rule="evenodd" fill="#FFFFFF" d="M750.216,72.237c3.113-0.003,6.228-0.007,9.34-0.012
		C756.443,73.052,753.329,73.029,750.216,72.237z"/>
	<path fill-rule="evenodd" clip-rule="evenodd" fill="#FFFFFF" d="M285.899,72.257c3.1-0.064,6.202-0.13,9.305-0.194
		C292.126,73.285,289.015,72.882,285.899,72.257z"/>
	<path fill-rule="evenodd" clip-rule="evenodd" fill="#FFFFFF" d="M437.257,71.612c-0.04-3.111-0.08-6.221-0.118-9.33
		C438.208,65.378,437.931,68.492,437.257,71.612z"/>
	<path fill-rule="evenodd" clip-rule="evenodd" fill="#FFFFFF" d="M268.743,8.362c0.004,3.112,0.011,6.224,0.015,9.337
		C267.964,14.588,267.995,11.476,268.743,8.362z"/>
	<path fill-rule="evenodd" clip-rule="evenodd" fill="#FFFFFF" d="M119.753,72.237c3.104-0.057,6.207-0.112,9.309-0.168
		C125.98,73.271,122.869,72.899,119.753,72.237z"/>
	<path fill-rule="evenodd" clip-rule="evenodd" fill="#FFFFFF" d="M54.39,17.692c-0.055-3.106-0.108-6.213-0.164-9.321
		C55.338,11.461,54.995,14.575,54.39,17.692z"/>
	<path fill-rule="evenodd" clip-rule="evenodd" fill="#FFFFFF" d="M623.685,72.275c3.105-0.062,6.212-0.124,9.317-0.184
		C629.92,73.262,626.803,72.875,623.685,72.275z"/>
	<path fill-rule="evenodd" clip-rule="evenodd" fill="#FFFFFF" d="M437.135,45.2c0.044-3.107,0.087-6.217,0.131-9.326
		C437.916,38.992,438.222,42.106,437.135,45.2z"/>
	<path fill-rule="evenodd" clip-rule="evenodd" fill="#FFFFFF" d="M437.287,17.695c-0.054-3.107-0.108-6.214-0.162-9.324
		C438.238,11.461,437.899,14.575,437.287,17.695z"/>
	<path fill-rule="evenodd" clip-rule="evenodd" fill="#FFFFFF" d="M205.57,72.188c3.115,0.022,6.228,0.047,9.342,0.069
		C211.792,72.947,208.676,73.128,205.57,72.188z"/>
	<path fill-rule="evenodd" clip-rule="evenodd" fill="#FFFFFF" d="M694.203,17.695c-0.054-3.107-0.106-6.216-0.161-9.324
		C695.152,11.461,694.813,14.575,694.203,17.695z"/>
	<path fill-rule="evenodd" clip-rule="evenodd" fill="#FFFFFF" d="M67.49,72.267c3.107-0.055,6.214-0.108,9.322-0.162
		C73.723,73.239,70.609,72.896,67.49,72.267z"/>
	<path fill-rule="evenodd" clip-rule="evenodd" fill="#FFFFFF" d="M707.856,72.23c3.105-0.05,6.209-0.099,9.313-0.146
		C714.084,73.245,710.973,72.918,707.856,72.23z"/>
	<path fill-rule="evenodd" clip-rule="evenodd" fill="#FFFFFF" d="M447.638,72.232c3.113-0.002,6.225-0.002,9.339-0.005
		C453.862,73.048,450.751,73.038,447.638,72.232z"/>
	<path fill-rule="evenodd" clip-rule="evenodd" fill="#FFFFFF" d="M163.155,18.79c2.866-0.728,5.736-0.685,8.608-0.034
		C168.892,18.767,166.024,18.778,163.155,18.79z"/>
	<path fill-rule="evenodd" clip-rule="evenodd" fill="#FFFFFF" d="M138.46,72.272c2.744-0.004,5.489-0.006,8.233-0.009
		C143.95,73.021,141.206,73.01,138.46,72.272z"/>
	<path fill-rule="evenodd" clip-rule="evenodd" fill="#FFFFFF" d="M188.52,72.228c2.744,0.011,5.491,0.023,8.236,0.034
		C194.006,73.003,191.262,73.057,188.52,72.228z"/>
	<path fill-rule="evenodd" clip-rule="evenodd" fill="#FFFFFF" d="M94.446,72.251c2.563-0.013,5.126-0.021,7.689-0.029
		C99.576,73.038,97.013,72.982,94.446,72.251z"/>
	<path fill-rule="evenodd" clip-rule="evenodd" fill="#FFFFFF" d="M643.963,16.063c-0.001,1.027,0.011,2.055-0.433,3.019
		C643.602,18.066,643.122,16.972,643.963,16.063z"/>
</g>
</svg>
