<?xml version="1.0" encoding="utf-8"?>
<!-- Generator: Adobe Illustrator 16.0.0, SVG Export Plug-In . SVG Version: 6.00 Build 0)  -->
<!DOCTYPE svg PUBLIC "-//W3C//DTD SVG 1.1//EN" "http://www.w3.org/Graphics/SVG/1.1/DTD/svg11.dtd">
<svg version="1.1" id="Layer_1" xmlns="http://www.w3.org/2000/svg" xmlns:xlink="http://www.w3.org/1999/xlink" x="0px" y="0px"
	 width="490.244px" height="121.189px" viewBox="0 0 490.244 121.189" enable-background="new 0 0 490.244 121.189"
	 xml:space="preserve">
<g>
	<path fill-rule="evenodd" clip-rule="evenodd" fill="#FFFFFF" d="M150.023,36.355c0.068-0.261,0.151-0.52,0.203-0.785
		c0.469-2.395,2.241-3.972,4.689-3.991c5.397-0.042,10.796-0.006,16.193-0.028c0.774-0.003,1.036,0.284,1.066,1.053
		c0.139,3.552,0.158,3.551-3.337,3.551c-4.198,0-8.396,0-12.595,0c-0.431,0-0.862,0-1.381,0c0,2.405,0,4.7,0,7.154
		c0.431,0,0.855,0,1.28,0c3.999,0,7.997-0.011,11.995,0.003c3.226,0.012,5.153,1.93,5.175,5.136
		c0.015,2.159,0.032,4.319-0.009,6.477c-0.052,2.717-1.998,4.696-4.713,4.717c-5.397,0.041-10.795,0.002-16.193,0.03
		c-0.836,0.004-1.163-0.297-1.123-1.117c0.036-0.758,0.049-1.522-0.003-2.278c-0.067-0.957,0.342-1.23,1.267-1.224
		c4.918,0.036,9.836,0.017,14.754,0.017c0.431,0,0.862,0,1.363,0c0-2.411,0-4.704,0-7.152c-0.481,0-0.908,0-1.335,0
		c-3.639,0-7.277,0-10.916,0c-4.14,0-5.204-0.769-6.38-4.604C150.023,40.995,150.023,38.675,150.023,36.355z"/>
	<path fill-rule="evenodd" clip-rule="evenodd" fill="#FFFFFF" d="M191.259,52.717c0.237-0.517,0.408-0.861,0.556-1.216
		c2.552-6.114,5.128-12.219,7.63-18.354c0.482-1.181,1.145-1.642,2.424-1.611c3.084,0.073,3.085,0.02,3.085,3.135
		c0,7.836-0.02,15.673,0.022,23.51c0.006,1.139-0.311,1.528-1.485,1.505c-3.146-0.06-3.146-0.01-3.146-3.165
		c0-3.878,0-7.757,0-11.635c0-0.381,0-0.762,0-1.144c-0.073-0.018-0.146-0.037-0.219-0.055c-0.154,0.338-0.318,0.672-0.461,1.015
		c-1.899,4.527-3.817,9.047-5.674,13.592c-0.407,0.998-0.971,1.417-2.064,1.385c-3.088-0.09-2.636,0.386-3.889-2.595
		c-1.717-4.084-3.416-8.176-5.125-12.264c-0.165-0.395-0.343-0.784-0.723-1.158c0,0.371,0,0.741,0,1.111
		c0,4.558-0.023,9.116,0.018,13.674c0.008,0.955-0.308,1.298-1.245,1.226c-0.795-0.062-1.6-0.041-2.398-0.006
		c-0.736,0.032-0.976-0.293-0.975-1.001c0.013-8.716,0.012-17.433,0.003-26.149c0-0.642,0.22-0.995,0.901-0.955
		c0.08,0.005,0.16-0.001,0.24,0c4.291,0.058,3.393-0.568,5.006,3.249c2.315,5.478,4.578,10.978,6.866,16.468
		C190.787,51.704,190.988,52.119,191.259,52.717z"/>
	<path fill-rule="evenodd" clip-rule="evenodd" fill="#FFFFFF" d="M376.197,36.155c0,6.407,0,12.592,0,18.846
		c4.608,0,9.149,0,13.794,0c0-2.294,0-4.588,0-7.083c-0.403,0-0.822,0-1.241,0c-2.56,0-5.12-0.037-7.679,0.019
		c-0.967,0.021-1.285-0.338-1.224-1.258c0.055-0.836-0.065-1.691,0.057-2.513c0.048-0.319,0.544-0.814,0.841-0.818
		c3.879-0.053,7.759-0.06,11.638-0.015c1.333,0.015,2.244,0.817,2.27,2.159c0.063,3.435,0.097,6.878-0.082,10.306
		c-0.107,2.047-2.084,3.783-4.154,3.813c-4.838,0.071-9.679,0.075-14.517,0.004c-2.3-0.034-4.293-2.015-4.318-4.343
		c-0.069-6.438-0.072-12.878,0.003-19.316c0.027-2.36,2.046-4.319,4.457-4.354c5.518-0.081,11.038-0.029,16.558-0.047
		c0.722-0.002,1.02,0.304,0.998,1.008c-0.02,0.679-0.064,1.367,0.011,2.038c0.133,1.184-0.264,1.601-1.518,1.583
		c-4.838-0.07-9.678-0.029-14.518-0.029C377.143,36.155,376.714,36.155,376.197,36.155z"/>
	<path fill-rule="evenodd" clip-rule="evenodd" fill="#FFFFFF" d="M362.653,52.122c0-0.74,0-1.118,0-1.496
		c0-5.836,0.029-11.672-0.025-17.508c-0.011-1.176,0.263-1.617,1.521-1.586c3.104,0.077,3.105,0.018,3.105,3.091
		c0,7.875-0.019,15.749,0.021,23.623c0.005,1.082-0.272,1.455-1.406,1.44c-3.71-0.046-3.711-0.002-5.812-3.085
		c-3.667-5.381-7.333-10.762-11.001-16.142c-0.238-0.349-0.492-0.686-0.979-0.979c0,0.418,0,0.836,0,1.254
		c0,5.836-0.022,11.672,0.021,17.507c0.008,1.068-0.254,1.467-1.402,1.445c-3.222-0.06-3.222-0.007-3.222-3.216
		c0-7.794,0.024-15.589-0.026-23.383c-0.008-1.222,0.359-1.59,1.567-1.55c4.345,0.144,3.07-0.635,5.532,2.931
		c3.745,5.424,7.433,10.888,11.146,16.333C361.93,51.15,362.187,51.483,362.653,52.122z"/>
	<path fill-rule="evenodd" clip-rule="evenodd" fill="#FFFFFF" d="M433.938,36.155c0,2.454,0,4.723,0,7.154c0.469,0,0.894,0,1.317,0
		c3.999,0,7.998-0.011,11.997,0.003c3.228,0.012,5.156,1.929,5.179,5.134c0.016,2.159,0.032,4.319-0.009,6.478
		c-0.052,2.717-1.999,4.697-4.714,4.718c-5.398,0.041-10.797,0.002-16.195,0.03c-0.839,0.004-1.16-0.302-1.121-1.12
		c0.036-0.758,0.05-1.522-0.004-2.278c-0.067-0.961,0.351-1.227,1.271-1.22c4.918,0.035,9.837,0.016,14.756,0.016
		c0.43,0,0.858,0,1.359,0c0-2.416,0-4.709,0-7.152c-0.49,0-0.918,0-1.346,0c-3.959,0-7.918,0.01-11.877-0.004
		c-3.397-0.012-5.252-1.852-5.297-5.26c-0.026-1.919-0.024-3.839-0.001-5.758c0.041-3.461,1.924-5.329,5.369-5.334
		c5.119-0.007,10.237,0.02,15.355-0.021c0.987-0.008,1.321,0.292,1.321,1.293c-0.002,3.319,0.032,3.319-3.336,3.319
		c-4.199,0-8.398,0-12.597,0C434.935,36.155,434.501,36.155,433.938,36.155z"/>
	<path fill-rule="evenodd" clip-rule="evenodd" fill="#FFFFFF" d="M257.243,50.46c1.545,2.675,3.027,5.228,4.496,7.789
		c0.652,1.139,0.509,1.425-0.769,1.404c-4.607-0.075-3.25,0.688-5.537-3.104c-1.053-1.744-2.021-3.537-3.074-5.281
		c-0.196-0.326-0.601-0.741-0.916-0.747c-2.914-0.058-5.828-0.034-8.903-0.034c0,1.551,0,3.019,0,4.486
		c-0.001,1.159-0.04,2.321,0.012,3.478c0.042,0.943-0.315,1.304-1.263,1.223c-0.794-0.068-1.598-0.034-2.397-0.009
		c-0.634,0.02-0.985-0.207-0.984-0.884c0.004-4.229,0.002-8.458,0.002-12.915c6.185,0,12.32,0,18.536,0c0-3.324,0-6.419,0-9.683
		c-6.159,0-12.284,0-18.506,0c0-0.912-0.07-1.668,0.015-2.407c0.156-1.359,1.02-2.187,2.405-2.195
		c5.397-0.031,10.795-0.06,16.192,0.017c2.562,0.036,4.512,2.074,4.563,4.645c0.063,3.157,0.073,6.318-0.001,9.475
		C261.058,48.174,259.607,49.645,257.243,50.46z"/>
	<path fill-rule="evenodd" clip-rule="evenodd" fill="#FFFFFF" d="M215.908,47.919c3.069,0,5.903,0.034,8.736-0.021
		c0.828-0.016,1.229,0.212,1.396,1.038c0.229,1.127,0.563,2.234,0.897,3.521c-0.524,0.033-0.936,0.081-1.347,0.082
		c-3.238,0.006-6.476,0.027-9.713-0.013c-0.808-0.01-1.216,0.166-1.382,1.044c-0.295,1.566-0.773,3.096-1.119,4.654
		c-0.223,1.007-0.704,1.467-1.809,1.459c-3.271-0.022-3.285,0.015-2.5-3.207c1.585-6.514,3.18-13.025,4.783-19.535
		c0.894-3.631,3.136-5.229,6.881-5.411c5.86-0.286,7.833,2.158,8.887,6.888c1.477,6.619,3.2,13.184,4.815,19.772
		c0.327,1.334,0.227,1.472-1.113,1.468c-3.638-0.011-3.178,0.395-4.062-3.175c-1.496-6.042-2.953-12.095-4.436-18.141
		c-0.466-1.899-0.849-2.181-2.819-2.187c-3.242-0.008-3.246-0.009-4.007,3.117C217.308,42.097,216.631,44.924,215.908,47.919z"/>
	<path fill-rule="evenodd" clip-rule="evenodd" fill="#FFFFFF" d="M461.523,43.456c4.741,0,9.281,0,13.946,0c0-0.932,0-1.801,0-2.67
		c0-1.999,0-3.998,0-5.996c0-3.388,0.543-3.851,3.906-3.188c0.281,0.056,0.652,0.561,0.673,0.877
		c0.079,1.234,0.034,2.477,0.034,3.716c0,7.355-0.02,14.711,0.022,22.066c0.006,1.099-0.311,1.443-1.427,1.425
		c-3.209-0.055-3.209-0.007-3.209-3.224c0-2.717,0-5.433,0-8.244c-4.621,0-9.192,0-13.946,0c0,0.394,0,0.813,0,1.234
		c0,2.998-0.029,5.997,0.017,8.994c0.015,0.954-0.324,1.299-1.257,1.226c-0.756-0.059-1.521-0.054-2.277-0.001
		c-0.861,0.061-1.097-0.325-1.095-1.129c0.018-8.595,0.022-17.189-0.006-25.784c-0.003-0.972,0.362-1.214,1.273-1.215
		c3.345-0.003,3.345-0.031,3.345,3.34C461.523,37.713,461.523,40.543,461.523,43.456z"/>
	<path fill-rule="evenodd" clip-rule="evenodd" fill="#FFFFFF" d="M298.496,45.824c-3.371-4.269-6.67-8.434-9.945-12.619
		c-0.292-0.375-0.42-0.878-0.624-1.321c0.483-0.108,0.964-0.23,1.449-0.32c2.709-0.502,4.527,0.585,6.056,2.868
		c1.771,2.641,3.918,5.03,6.005,7.659c0.491-0.611,0.911-1.127,1.324-1.648c2.083-2.633,4.181-5.256,6.238-7.91
		c0.538-0.694,1.137-1.048,2.034-0.984c0.875,0.062,1.761-0.026,2.637,0.03c0.435,0.028,0.857,0.231,1.285,0.355
		c-0.173,0.382-0.277,0.818-0.528,1.14c-2.734,3.495-5.491,6.972-8.241,10.454c-0.593,0.751-1.182,1.506-1.807,2.303
		c3.148,3.982,6.279,7.923,9.382,11.886c0.371,0.475,0.588,1.071,0.877,1.611c-0.599,0.111-1.196,0.229-1.796,0.333
		c-2.421,0.418-4.084-0.479-5.479-2.559c-1.751-2.607-3.862-4.972-5.915-7.563c-1.588,1.994-3.096,3.888-4.602,5.783
		c-0.921,1.158-1.776,2.377-2.789,3.447c-0.432,0.457-1.168,0.768-1.806,0.855c-1.021,0.14-2.075,0.056-3.114,0.025
		c-0.289-0.009-0.791-0.123-0.816-0.259c-0.057-0.298,0.043-0.708,0.233-0.956c1.362-1.776,2.763-3.523,4.15-5.279
		C294.611,50.74,296.517,48.328,298.496,45.824z"/>
	<path fill-rule="evenodd" clip-rule="evenodd" fill="#FFFFFF" d="M323.007,48.123c0,2.396,0,4.586,0,6.948c0.47,0,0.894,0,1.317,0
		c4.515,0,9.03,0.031,13.544-0.023c1.073-0.013,1.438,0.337,1.342,1.375c-0.07,0.752-0.04,1.518-0.008,2.276
		c0.03,0.733-0.296,0.972-1.005,0.969c-5.114-0.023-10.229,0.023-15.342-0.042c-2.641-0.034-4.494-2.141-4.529-5.037
		c-0.042-3.435-0.01-6.872-0.008-10.308c0.001-0.194,0.028-0.388,0.051-0.686c0.419-0.026,0.802-0.071,1.185-0.071
		c6.073-0.004,12.146,0.02,18.219-0.024c1.071-0.008,1.575,0.254,1.437,1.397c-0.072,0.591-0.073,1.205,0,1.795
		c0.148,1.2-0.388,1.468-1.505,1.454c-4.435-0.056-8.869-0.023-13.305-0.023C323.97,48.123,323.541,48.123,323.007,48.123z"/>
	<path fill-rule="evenodd" clip-rule="evenodd" fill="#FFFFFF" d="M272.763,36.155c-2.078,0-3.989-0.046-5.896,0.019
		c-0.973,0.034-1.29-0.322-1.215-1.252c0.061-0.754,0.051-1.52,0.004-2.277c-0.053-0.854,0.326-1.1,1.137-1.096
		c5.516,0.023,11.031,0.027,16.547-0.003c0.884-0.005,1.183,0.299,1.205,1.176c0.086,3.433,0.109,3.433-3.35,3.433
		c-1.193,0-2.386,0-3.768,0c0,0.547,0,1.006,0,1.466c0,6.834-0.027,13.669,0.024,20.503c0.009,1.203-0.325,1.592-1.554,1.563
		c-3.134-0.074-3.135-0.018-3.135-3.189c0-6.275,0-12.55,0-18.825C272.763,37.209,272.763,36.745,272.763,36.155z"/>
	<path fill-rule="evenodd" clip-rule="evenodd" fill="#FFFFFF" d="M403.766,55.071c3.732,0,7.288,0.05,10.84-0.027
		c1.215-0.026,1.592,0.33,1.564,1.55c-0.068,3.064-0.015,3.066-3.137,3.066c-2.959,0-5.918,0.018-8.876-0.006
		c-3.012-0.024-4.973-1.939-4.984-4.947c-0.029-7.316-0.001-14.633-0.022-21.95c-0.003-0.86,0.262-1.199,1.166-1.214
		c3.449-0.058,3.449-0.085,3.449,3.34c0,6.197,0,12.395,0,18.592C403.766,53.948,403.766,54.421,403.766,55.071z"/>
	<path fill-rule="evenodd" clip-rule="evenodd" fill="#FFFFFF" d="M420.217,45.584c0-4.193,0.027-8.387-0.019-12.581
		c-0.011-1.043,0.21-1.492,1.386-1.471c3.228,0.058,3.229,0.004,3.229,3.213c0,7.828-0.018,15.657,0.021,23.485
		c0.005,1.067-0.248,1.475-1.397,1.456c-3.218-0.054-3.219-0.003-3.219-3.199C420.217,52.854,420.217,49.219,420.217,45.584z"/>
	<path fill-rule="evenodd" clip-rule="evenodd" fill="#FFFFFF" d="M318.415,36.16c0.199-2.621,1.982-4.517,4.417-4.557
		c5.154-0.085,10.31-0.03,15.465-0.047c0.687-0.002,0.869,0.324,0.909,0.956c0.229,3.645,0.241,3.643-3.354,3.644
		c-5.396,0.001-10.79,0.003-16.185,0.005C319.274,36.161,318.881,36.16,318.415,36.16z"/>
</g>
<g>
	<path fill-rule="evenodd" clip-rule="evenodd" fill="#DBDBDB" d="M359.387,82.385c0-2.275,0.019-4.55-0.011-6.825
		c-0.015-1.333,0.604-1.902,1.917-1.886c2.621,0.028,5.244-0.006,7.868,0.011c2.633,0.018,4.359,1.491,4.481,4.104
		c0.064,1.353-0.36,2.726-0.537,4.093c-0.055,0.414-0.047,0.843-0.006,1.259c0.148,1.539,0.558,3.095,0.426,4.605
		c-0.181,2.088-1.845,3.411-3.959,3.448c-2.798,0.052-5.597,0.007-8.395,0.018c-1.24,0.004-1.802-0.595-1.792-1.827
		C359.398,87.053,359.387,84.719,359.387,82.385z M362.274,81.04c2.458,0,4.765,0.001,7.075,0c1.272-0.001,1.522-0.84,1.494-1.875
		c-0.029-1.068,0.288-2.484-1.299-2.585c-2.403-0.151-4.822-0.039-7.271-0.039C362.274,78.121,362.274,79.449,362.274,81.04z
		 M362.295,88.359c2.451,0,4.761,0.03,7.071-0.014c1.361-0.024,1.496-1.025,1.485-2.094c-0.012-1.066,0.082-2.279-1.409-2.333
		c-2.359-0.085-4.724-0.022-7.147-0.022C362.295,85.438,362.295,86.762,362.295,88.359z"/>
	<path fill-rule="evenodd" clip-rule="evenodd" fill="#DBDBDB" d="M267.093,73.706c0,0.95,0,1.737,0,2.732
		c-3.473,0-6.938,0-10.527,0c0,4.024,0,7.847,0,11.798c2.734,0,5.494,0,8.374,0c0-1.407,0-2.774,0-4.327c-2.039,0-3.994,0-6.063,0
		c0-1.015,0-1.848,0-2.858c2.586,0,5.086-0.094,7.569,0.076c0.521,0.035,1.334,1.004,1.394,1.604
		c0.178,1.851,0.152,3.737,0.025,5.596c-0.121,1.82-1.299,2.845-3.123,2.874c-2.684,0.039-5.369,0.045-8.054-0.005
		c-1.983-0.036-3.069-1.191-3.085-3.232c-0.026-3.678-0.023-7.358,0-11.037c0.012-1.839,0.929-3.131,2.568-3.184
		C259.769,73.625,263.373,73.706,267.093,73.706z"/>
	<path fill-rule="evenodd" clip-rule="evenodd" fill="#DBDBDB" d="M236.211,73.856c2.119-0.654,3.328,0.145,4.399,1.875
		c2.17,3.508,4.571,6.871,7.243,10.229c0-4.027,0-8.053,0-12.175c1.041,0,1.829,0,2.76,0c0,5.752,0,11.49,0,17.245
		c-1.845,0.464-3.166,0.235-4.282-1.577c-2.213-3.596-4.713-7.012-7.429-10.401c0,3.986,0,7.973,0,12.056c-0.974,0-1.767,0-2.691,0
		C236.211,85.383,236.211,79.64,236.211,73.856z"/>
	<path fill-rule="evenodd" clip-rule="evenodd" fill="#DBDBDB" d="M427.958,86.47c0-4.563,0-8.603,0-12.704c1.038,0,1.824,0,2.73,0
		c0,5.777,0,11.469,0,17.28c-1.745,0.35-3.108,0.331-4.244-1.51c-2.23-3.61-4.738-7.05-7.407-10.959c0,4.415,0,8.384,0,12.492
		c-1.025,0-1.855,0-2.8,0c0-5.74,0-11.483,0-17.252c1.865-0.386,3.188-0.137,4.269,1.687c1.899,3.203,4.124,6.215,6.219,9.302
		C427.008,85.218,427.322,85.609,427.958,86.47z"/>
	<path fill-rule="evenodd" clip-rule="evenodd" fill="#DBDBDB" d="M317.308,82.457c0.001,1.753,0.038,3.506-0.006,5.258
		c-0.065,2.426-1.174,3.479-3.608,3.491c-2.453,0.014-4.904,0.024-7.356-0.003c-2.232-0.025-3.33-1.116-3.344-3.336
		c-0.021-3.623-0.023-7.244,0-10.867c0.014-2.206,1.122-3.291,3.367-3.313c2.509-0.026,5.02-0.025,7.53-0.001
		c2.195,0.02,3.326,1.104,3.404,3.337C317.359,78.833,317.308,80.646,317.308,82.457z M305.912,88.227c2.873,0,5.628,0,8.39,0
		c0-3.959,0-7.778,0-11.6c-2.869,0-5.589,0-8.39,0C305.912,80.509,305.912,84.289,305.912,88.227z"/>
	<path fill-rule="evenodd" clip-rule="evenodd" fill="#DBDBDB" d="M460.403,88.413c0-1.632,0-2.998,0-4.525
		c-2.73,0-5.341,0.016-7.951-0.004c-2.354-0.018-3.363-1.054-3.388-3.439c-0.015-1.283-0.043-2.569,0.01-3.85
		c0.069-1.637,1.098-2.833,2.714-2.872c3.537-0.088,7.083-0.027,10.76-0.027c0,0.933,0,1.72,0,2.713c-3.432,0-6.894,0-10.5,0
		c0,1.612,0,3.021,0,4.635c2.541,0,5.085-0.007,7.631,0.002c2.549,0.009,3.636,1.05,3.699,3.571c0.03,1.224,0.068,2.457-0.036,3.672
		c-0.142,1.646-1.063,2.828-2.743,2.882c-3.538,0.114-7.085,0.034-10.731,0.034c0-0.978,0-1.813,0-2.791
		C453.364,88.413,456.785,88.413,460.403,88.413z"/>
	<path fill-rule="evenodd" clip-rule="evenodd" fill="#DBDBDB" d="M467.001,91.208c0-0.997,0-1.792,0-2.787c3.5,0,6.966,0,10.559,0
		c0-1.561,0-2.927,0-4.533c-2.595,0-5.135,0.007-7.675-0.001c-2.7-0.01-3.646-0.971-3.658-3.698
		c-0.007-1.108-0.023-2.217,0.002-3.325c0.048-1.944,1.09-3.126,2.977-3.161c3.436-0.063,6.871-0.018,10.512-0.018
		c0.045,0.913,0.088,1.741,0.142,2.781c-3.637,0-7.1,0-10.676,0c0,1.568,0,2.94,0,4.578c2.431,0,4.911-0.002,7.391,0.001
		c2.975,0.003,3.954,0.984,3.971,4.002c0.008,1.108,0.063,2.224-0.049,3.321c-0.179,1.738-1.285,2.801-2.986,2.826
		C474.075,91.245,470.642,91.208,467.001,91.208z"/>
	<path fill-rule="evenodd" clip-rule="evenodd" fill="#DBDBDB" d="M294.779,73.684c0,0.996,0,1.783,0,2.772
		c-3.503,0-6.967,0-10.545,0c0,1.568,0,2.941,0,4.587c2.413,0,4.893-0.002,7.371,0.001c2.984,0.003,3.967,0.981,3.984,3.988
		c0.008,1.108,0.064,2.225-0.047,3.323c-0.174,1.737-1.28,2.812-2.977,2.836c-3.433,0.054-6.867,0.017-10.449,0.017
		c0-0.906,0-1.741,0-2.777c3.42,0,6.886,0,10.482,0c0-1.56,0-2.926,0-4.543c-2.579,0-5.117,0.006-7.656-0.001
		c-2.707-0.009-3.66-0.97-3.673-3.685c-0.006-1.167-0.033-2.335,0.009-3.5c0.064-1.81,1.142-2.968,2.958-3
		C287.672,73.639,291.107,73.684,294.779,73.684z"/>
	<path fill-rule="evenodd" clip-rule="evenodd" fill="#DBDBDB" d="M396.318,81.043c2.649,0,5.203-0.01,7.756,0.002
		c2.43,0.012,3.531,1.069,3.605,3.489c0.037,1.223,0.067,2.455-0.025,3.673c-0.143,1.842-1.252,2.959-3.02,2.985
		c-3.432,0.052-6.863,0.015-10.433,0.015c0-0.925,0-1.76,0-2.795c3.447,0,6.913,0,10.499,0c0-1.563,0-2.93,0-4.525
		c-2.606,0-5.148,0.007-7.689-0.001c-2.694-0.011-3.636-0.972-3.648-3.711c-0.003-1.167-0.032-2.334,0.011-3.5
		c0.065-1.733,1.104-2.925,2.81-2.964c3.49-0.079,6.984-0.024,10.676-0.024c0.043,0.914,0.083,1.745,0.131,2.785
		c-3.638,0-7.102,0-10.672,0C396.318,78.042,396.318,79.415,396.318,81.043z"/>
	<path fill-rule="evenodd" clip-rule="evenodd" fill="#DBDBDB" d="M349.595,86.165c0.701,1.255,1.659,2.964,2.638,4.712
		c-2.605,0.705-2.84,0.614-4.019-1.446c-0.983-1.721-1.986-3.433-2.944-5.169c-0.757-1.374-0.557-1.688,1.051-1.734
		c0.749-0.021,1.498-0.004,2.334-0.004c0-2.06,0-3.955,0-5.92c-2.844,0-5.563,0-8.467,0c0,4.832,0,9.591,0,14.478
		c-1.015,0-1.844,0-2.872,0c0-2.469,0-4.905,0-7.344c0-2.746,0.013-5.491-0.004-8.237c-0.008-1.236,0.56-1.828,1.801-1.823
		c3.151,0.012,6.304-0.032,9.456,0.019c1.768,0.028,2.953,1.176,3.039,2.973c0.092,1.923,0.235,3.887-0.056,5.77
		C351.374,83.602,350.428,84.646,349.595,86.165z"/>
	<path fill-rule="evenodd" clip-rule="evenodd" fill="#DBDBDB" d="M176.975,73.692c0,1.03,0,1.828,0,2.793c-3.257,0-6.438,0-9.738,0
		c0,1.649,0,3.132,0,4.845c3.204,0,6.43,0,9.734,0c0,1.023,0,1.821,0,2.776c-3.216,0-6.398,0-9.718,0c0,1.45,0,2.746,0,4.219
		c3.182,0,6.36,0,9.669,0c0,1.002,0,1.835,0,2.859c-3.39,0-6.757,0.105-10.112-0.05c-1.557-0.07-2.509-1.217-2.524-2.848
		c-0.038-3.907-0.047-7.816,0.005-11.724c0.021-1.623,1.116-2.802,2.736-2.845C170.28,73.632,173.534,73.692,176.975,73.692z"/>
	<path fill-rule="evenodd" clip-rule="evenodd" fill="#DBDBDB" d="M446.336,88.322c0,1.021,0,1.814,0,2.812
		c-3.481,0-6.953,0.119-10.411-0.058c-1.373-0.07-2.245-1.241-2.259-2.705c-0.041-3.966-0.05-7.934,0.005-11.899
		c0.023-1.55,1.009-2.64,2.478-2.707c3.357-0.151,6.726-0.048,10.185-0.048c0,0.951,0,1.747,0,2.771c-3.22,0-6.445,0-9.755,0
		c0,1.709,0,3.193,0,4.847c3.261,0,6.44,0,9.736,0c0,1.003,0,1.835,0,2.831c-3.252,0-6.435,0-9.718,0c0,1.413,0,2.671,0,4.157
		C439.793,88.322,443.017,88.322,446.336,88.322z"/>
	<path fill-rule="evenodd" clip-rule="evenodd" fill="#DBDBDB" d="M195.642,91.027c-2.816,0.355-2.95,0.376-3.315-1.926
		c-0.301-1.895-1.06-2.657-3.047-2.452c-1.896,0.198-3.831,0.043-5.889,0.043c-0.227,0.812-0.458,1.571-0.654,2.339
		c-0.624,2.438-0.619,2.439-3.381,1.959c1.222-4.961,2.32-9.946,3.721-14.845c0.613-2.149,2.613-2.568,4.703-2.48
		c2.142,0.091,3.682,0.807,4.147,2.537C193.239,81.077,194.393,85.994,195.642,91.027z M190.963,83.777
		c-0.511-2.096-1.017-4.004-1.435-5.933c-0.236-1.096-0.896-1.35-1.898-1.335c-0.988,0.014-1.88,0.031-2.163,1.245
		c-0.461,1.979-0.949,3.951-1.449,6.023C186.353,83.777,188.553,83.777,190.963,83.777z"/>
	<path fill-rule="evenodd" clip-rule="evenodd" fill="#DBDBDB" d="M215.766,81.258c3.013,0,5.73,0,8.707,0c0-2.457,0-4.923,0-7.478
		c1.046,0,1.835,0,2.759,0c0,5.751,0,11.483,0,17.323c-0.837,0-1.626,0-2.646,0c0-2.228,0-4.465,0-6.801c-2.989,0-5.753,0-8.726,0
		c0,2.272,0,4.512,0,6.824c-0.999,0-1.791,0-2.857,0c0-0.659,0-1.272,0-1.89c0-4.373,0-8.748,0-13.122
		c0-2.552,0.001-2.552,2.763-2.329C215.766,76.191,215.766,78.615,215.766,81.258z"/>
	<path fill-rule="evenodd" clip-rule="evenodd" fill="#DBDBDB" d="M376.2,73.769c1.027,0,1.82,0,2.787,0c0,4.843,0,9.601,0,14.477
		c2.934,0,5.692,0,8.655,0c0-4.821,0-9.581,0-14.45c0.987,0,1.773,0,2.713,0c0.053,0.415,0.158,0.854,0.159,1.294
		c0.013,4.144,0.023,8.288,0.003,12.432c-0.015,2.646-1.089,3.68-3.758,3.687c-2.331,0.008-4.664,0.013-6.996-0.002
		c-2.487-0.016-3.552-1.041-3.56-3.467C376.187,83.136,376.2,78.533,376.2,73.769z"/>
	<path fill-rule="evenodd" clip-rule="evenodd" fill="#DBDBDB" d="M320.152,73.742c1.063,0,1.813,0,2.74,0c0,4.813,0,9.571,0,14.476
		c2.935,0,5.692,0,8.718,0c0-4.778,0-9.584,0-14.454c1.049,0,1.838,0,2.865,0c0,0.763,0,1.445,0,2.127
		c0,3.794,0.008,7.588-0.003,11.382c-0.008,2.913-1.013,3.93-3.86,3.935c-2.332,0.006-4.666,0.019-6.998-0.003
		c-2.369-0.02-3.448-1.068-3.456-3.392C320.139,83.16,320.152,78.505,320.152,73.742z"/>
	<path fill-rule="evenodd" clip-rule="evenodd" fill="#DBDBDB" d="M210.237,73.703c0,1.05,0,1.845,0,2.81c-3.275,0-6.458,0-9.74,0
		c0,3.992,0,7.812,0,11.809c3.213,0,6.394,0,9.704,0c0,1.005,0,1.839,0,2.859c-3.396,0-6.765,0.097-10.124-0.046
		c-1.479-0.063-2.473-1.146-2.499-2.689c-0.065-3.968-0.058-7.939-0.008-11.908c0.02-1.636,1.031-2.724,2.591-2.792
		C203.468,73.605,206.784,73.703,210.237,73.703z"/>
	<path fill-rule="evenodd" clip-rule="evenodd" fill="#DBDBDB" d="M157.133,91.207c-0.831,0-1.344,0.014-1.858-0.004
		c-0.277-0.012-0.552-0.075-1.016-0.139c0-4.81,0-9.566,0-14.502c-1.503,0-2.815,0-4.237,0c0-1.017,0-1.854,0-2.786
		c3.757,0,7.465,0,11.33,0c0,0.828,0,1.661,0,2.705c-1.297,0-2.663,0-4.219,0C157.133,81.443,157.133,86.202,157.133,91.207z"/>
	<path fill-rule="evenodd" clip-rule="evenodd" fill="#DBDBDB" d="M233.284,73.767c0,5.823,0,11.526,0,17.335
		c-0.901,0-1.732,0-2.767,0c0-2.71,0-5.322,0-7.936c0-2.337-0.001-4.673,0-7.011C230.517,73.587,230.518,73.587,233.284,73.767z"/>
	<path fill-rule="evenodd" clip-rule="evenodd" fill="#DBDBDB" d="M278.117,73.583c0,6.023,0,11.726,0,17.526
		c-0.867,0-1.659,0-2.524,0c-0.069-0.184-0.216-0.394-0.216-0.602c-0.016-5.201-0.036-10.399-0.012-15.599
		C275.376,72.716,277.044,74.066,278.117,73.583z"/>
	<path fill-rule="evenodd" clip-rule="evenodd" fill="#DBDBDB" d="M413.331,73.31c0,6.296,0,11.999,0,17.799
		c-0.865,0-1.658,0-2.523,0c-0.071-0.184-0.215-0.393-0.217-0.602c-0.016-5.199-0.029-10.398-0.016-15.598
		C410.58,72.65,412.33,74.226,413.331,73.31z"/>
</g>
<path fill-rule="evenodd" clip-rule="evenodd" fill="#FFFFFF" d="M9.822,6.453c0.558,0,1.065,0,1.572,0
	c15.837,0,31.675,0.04,47.512-0.024c5.045-0.021,8.668,2.295,11.445,6.27c0.523,0.75,0.956,1.563,1.491,2.446
	c0.516-0.834,0.971-1.655,1.504-2.421c2.77-3.978,6.385-6.313,11.431-6.293c15.837,0.06,31.675,0.022,47.512,0.022
	c0.511,0,1.021,0,1.604,0c0,32.871,0,65.599,0,98.462c-0.547,0-1.016,0-1.484,0c-15.677-0.004-31.355,0.08-47.031-0.063
	c-4.969-0.045-8.162,2.279-10.365,6.37c-0.818,1.519-1.326,3.205-2.036,4.968c-0.647,0-1.59,0-2.523,0
	c-0.604-3.552-2.178-6.54-4.813-8.913c-1.745-1.572-3.798-2.394-6.217-2.389c-16.037,0.034-32.075,0.023-48.112,0.027
	c-0.471,0-0.941,0-1.489,0C9.822,72.066,9.822,39.338,9.822,6.453z M130.887,9.447c-0.554,0-1.025,0-1.497,0
	c-14.957,0-29.913,0-44.869,0c-5.441,0-11.147,5.697-11.149,11.165c-0.006,28.673-0.003,57.346,0.001,86.019
	c0,0.333,0.045,0.667,0.072,1.046c0.174-0.089,0.261-0.109,0.308-0.163c0.313-0.363,0.606-0.745,0.929-1.099
	c2.62-2.878,5.769-4.566,9.768-4.558c14.996,0.03,29.992,0.017,44.989,0.019c0.466,0,0.932,0,1.449,0
	C130.887,71.033,130.887,40.332,130.887,9.447z M12.866,9.447c0,30.885,0,61.611,0,92.43c0.558,0,1.031,0,1.503,0
	c14.955-0.002,29.91,0.015,44.865-0.024c3.295-0.009,6.06,1.166,8.509,3.266c0.86,0.738,1.732,1.46,2.546,2.145
	c0-0.287,0-0.794,0-1.301c0-27.831-0.037-55.662,0.052-83.492c0.01-3.139-0.868-5.811-2.595-8.274
	c-2.137-3.05-4.953-4.794-8.864-4.776c-14.835,0.069-29.67,0.028-44.505,0.028C13.903,9.447,13.429,9.447,12.866,9.447z"/>
<path opacity="0" fill-rule="evenodd" clip-rule="evenodd" fill="#FFFFFF" d="M130.887,9.447c0,30.885,0,61.586,0,92.43
	c-0.518,0-0.983,0-1.449,0c-14.997-0.002-29.993,0.011-44.989-0.019c-3.999-0.008-7.147,1.68-9.768,4.558
	c-0.322,0.354-0.615,0.736-0.929,1.099c-0.047,0.054-0.134,0.073-0.308,0.163c-0.027-0.379-0.072-0.713-0.072-1.046
	c-0.004-28.673-0.007-57.346-0.001-86.019c0.002-5.468,5.708-11.165,11.149-11.165c14.956,0,29.912,0,44.869,0
	C129.861,9.447,130.333,9.447,130.887,9.447z M123.894,17.222c-14.342,0-28.595,0-42.883,0c0,1.095,0,2.113,0,3.173
	c14.326,0,28.579,0,42.883,0C123.894,19.329,123.894,18.339,123.894,17.222z M81.012,28.062c14.377,0,28.628,0,42.838,0
	c0-1.117,0-2.134,0-3.162c-14.318,0-28.54,0-42.838,0C81.012,25.979,81.012,26.998,81.012,28.062z M81.012,35.752
	c14.379,0,28.63,0,42.835,0c0-1.115,0-2.131,0-3.157c-14.319,0-28.54,0-42.835,0C81.012,33.677,81.012,34.694,81.012,35.752z
	 M81.016,43.443c14.313,0,28.591,0,42.828,0c0-1.111,0-2.123,0-3.15c-14.317,0-28.533,0-42.828,0
	C81.016,41.372,81.016,42.386,81.016,43.443z M81.021,47.987c0,1.119,0,2.134,0,3.167c14.329,0,28.573,0,42.843,0
	c0-1.087,0-2.099,0-3.167C109.57,47.987,95.358,47.987,81.021,47.987z M123.889,55.709c-14.353,0-28.596,0-42.865,0
	c0,1.092,0,2.105,0,3.138c14.328,0,28.569,0,42.865,0C123.889,57.79,123.889,56.803,123.889,55.709z M81,94.201
	c0,1.109,0,2.096,0,3.122c14.336,0,28.607,0,42.883,0c0-1.089,0-2.074,0-3.122C109.578,94.201,95.336,94.201,81,94.201z
	 M123.874,63.423c-14.32,0-28.568,0-42.842,0c0,1.093,0,2.102,0,3.092c14.344,0,28.592,0,42.842,0
	C123.874,65.434,123.874,64.451,123.874,63.423z M80.996,89.654c14.36,0,28.583,0,42.875,0c0-1.078,0-2.091,0-3.132
	c-14.326,0-28.578,0-42.875,0C80.996,87.584,80.996,88.566,80.996,89.654z M80.996,81.904c14.387,0,28.633,0,42.874,0
	c0-1.092,0-2.072,0-3.079c-14.326,0-28.576,0-42.874,0C80.996,79.889,80.996,80.87,80.996,81.904z M123.876,71.12
	c-14.316,0-28.563,0-42.847,0c0,1.084,0,2.093,0,3.094c14.34,0,28.586,0,42.847,0C123.876,73.136,123.876,72.155,123.876,71.12z"/>
<path opacity="0" fill-rule="evenodd" clip-rule="evenodd" fill="#FFFFFF" d="M12.866,9.447c0.563,0,1.037,0,1.511,0
	c14.835,0,29.67,0.041,44.505-0.028c3.911-0.018,6.728,1.726,8.864,4.776c1.727,2.464,2.604,5.135,2.595,8.274
	c-0.089,27.831-0.052,55.662-0.052,83.492c0,0.507,0,1.014,0,1.301c-0.813-0.684-1.686-1.407-2.546-2.145
	c-2.449-2.101-5.214-3.275-8.509-3.266c-14.955,0.039-29.91,0.021-44.865,0.024c-0.473,0-0.946,0-1.503,0
	C12.866,71.058,12.866,40.332,12.866,9.447z M19.826,20.386c14.373,0,28.626,0,42.876,0c0-1.105,0-2.125,0-3.154
	c-14.333,0-28.586,0-42.876,0C19.826,18.31,19.826,19.303,19.826,20.386z M62.744,24.928c-14.383,0-28.635,0-42.874,0
	c0,1.113,0,2.133,0,3.147c14.335,0,28.589,0,42.874,0C62.744,26.997,62.744,26.004,62.744,24.928z M19.83,35.772
	c14.362,0,28.616,0,42.874,0c0-1.097,0-2.115,0-3.157c-14.331,0-28.582,0-42.874,0C19.83,33.692,19.83,34.684,19.83,35.772z
	 M19.829,43.458c14.374,0,28.624,0,42.866,0c0-1.098,0-2.113,0-3.14c-14.335,0-28.584,0-42.866,0
	C19.829,41.397,19.829,42.387,19.829,43.458z M62.706,51.18c0-1.104,0-2.118,0-3.175c-14.322,0-28.57,0-42.844,0
	c0,1.094,0,2.111,0,3.175C34.152,51.18,48.37,51.18,62.706,51.18z M62.735,55.714c-14.376,0-28.621,0-42.86,0
	c0,1.101,0,2.118,0,3.127c14.329,0,28.571,0,42.86,0C62.735,57.776,62.735,56.789,62.735,55.714z M19.839,97.348
	c14.359,0,28.606,0,42.861,0c0-1.096,0-2.113,0-3.139c-14.326,0-28.568,0-42.861,0C19.839,95.27,19.839,96.256,19.839,97.348z
	 M19.876,63.404c0,1.113,0,2.126,0,3.112c14.338,0,28.59,0,42.837,0c0-1.082,0-2.066,0-3.112
	C48.42,63.404,34.196,63.404,19.876,63.404z M62.722,71.138c-14.355,0-28.604,0-42.87,0c0,1.078,0,2.06,0,3.102
	c14.312,0,28.561,0,42.87,0C62.722,73.189,62.722,72.207,62.722,71.138z M62.722,86.533c-14.356,0-28.608,0-42.871,0
	c0,1.076,0,2.061,0,3.11c14.311,0,28.561,0,42.871,0C62.722,88.584,62.722,87.6,62.722,86.533z M19.851,81.922
	c14.342,0,28.592,0,42.83,0c0-1.105,0-2.117,0-3.114c-14.323,0-28.546,0-42.83,0C19.851,79.855,19.851,80.838,19.851,81.922z"/>
<path fill-rule="evenodd" clip-rule="evenodd" fill="#FFFFFF" d="M123.894,17.222c0,1.117,0,2.107,0,3.173
	c-14.304,0-28.557,0-42.883,0c0-1.06,0-2.078,0-3.173C95.299,17.222,109.552,17.222,123.894,17.222z"/>
<path fill-rule="evenodd" clip-rule="evenodd" fill="#FFFFFF" d="M81.012,28.062c0-1.064,0-2.083,0-3.162c14.298,0,28.52,0,42.838,0
	c0,1.028,0,2.045,0,3.162C109.64,28.062,95.389,28.062,81.012,28.062z"/>
<path fill-rule="evenodd" clip-rule="evenodd" fill="#FFFFFF" d="M81.012,35.752c0-1.058,0-2.075,0-3.157
	c14.295,0,28.516,0,42.835,0c0,1.026,0,2.042,0,3.157C109.642,35.752,95.391,35.752,81.012,35.752z"/>
<path fill-rule="evenodd" clip-rule="evenodd" fill="#FFFFFF" d="M81.016,43.443c0-1.057,0-2.072,0-3.15c14.295,0,28.511,0,42.828,0
	c0,1.027,0,2.039,0,3.15C109.606,43.443,95.329,43.443,81.016,43.443z"/>
<path fill-rule="evenodd" clip-rule="evenodd" fill="#FFFFFF" d="M81.021,47.987c14.337,0,28.549,0,42.843,0
	c0,1.069,0,2.081,0,3.167c-14.27,0-28.514,0-42.843,0C81.021,50.121,81.021,49.106,81.021,47.987z"/>
<path fill-rule="evenodd" clip-rule="evenodd" fill="#FFFFFF" d="M123.889,55.709c0,1.094,0,2.08,0,3.138
	c-14.296,0-28.537,0-42.865,0c0-1.032,0-2.045,0-3.138C95.293,55.709,109.536,55.709,123.889,55.709z"/>
<path fill-rule="evenodd" clip-rule="evenodd" fill="#FFFFFF" d="M81,94.201c14.336,0,28.578,0,42.883,0c0,1.048,0,2.033,0,3.122
	c-14.275,0-28.547,0-42.883,0C81,96.296,81,95.31,81,94.201z"/>
<path fill-rule="evenodd" clip-rule="evenodd" fill="#FFFFFF" d="M123.874,63.423c0,1.028,0,2.01,0,3.092
	c-14.25,0-28.498,0-42.842,0c0-0.99,0-1.999,0-3.092C95.306,63.423,109.554,63.423,123.874,63.423z"/>
<path fill-rule="evenodd" clip-rule="evenodd" fill="#FFFFFF" d="M80.996,89.654c0-1.088,0-2.07,0-3.132c14.297,0,28.549,0,42.875,0
	c0,1.041,0,2.054,0,3.132C109.579,89.654,95.356,89.654,80.996,89.654z"/>
<path fill-rule="evenodd" clip-rule="evenodd" fill="#FFFFFF" d="M80.996,81.904c0-1.034,0-2.016,0-3.079
	c14.298,0,28.548,0,42.874,0c0,1.007,0,1.987,0,3.079C109.629,81.904,95.383,81.904,80.996,81.904z"/>
<path fill-rule="evenodd" clip-rule="evenodd" fill="#FFFFFF" d="M123.876,71.12c0,1.035,0,2.016,0,3.094
	c-14.261,0-28.507,0-42.847,0c0-1.001,0-2.009,0-3.094C95.313,71.12,109.56,71.12,123.876,71.12z"/>
<path fill-rule="evenodd" clip-rule="evenodd" fill="#FFFFFF" d="M19.826,20.386c0-1.083,0-2.076,0-3.154c14.29,0,28.542,0,42.876,0
	c0,1.029,0,2.049,0,3.154C48.453,20.386,34.199,20.386,19.826,20.386z"/>
<path fill-rule="evenodd" clip-rule="evenodd" fill="#FFFFFF" d="M62.744,24.928c0,1.077,0,2.069,0,3.147
	c-14.285,0-28.539,0-42.874,0c0-1.014,0-2.034,0-3.147C34.108,24.928,48.361,24.928,62.744,24.928z"/>
<path fill-rule="evenodd" clip-rule="evenodd" fill="#FFFFFF" d="M19.83,35.772c0-1.088,0-2.08,0-3.157c14.292,0,28.543,0,42.874,0
	c0,1.042,0,2.06,0,3.157C48.445,35.772,34.191,35.772,19.83,35.772z"/>
<path fill-rule="evenodd" clip-rule="evenodd" fill="#FFFFFF" d="M19.829,43.458c0-1.07,0-2.061,0-3.14c14.282,0,28.53,0,42.866,0
	c0,1.026,0,2.042,0,3.14C48.453,43.458,34.203,43.458,19.829,43.458z"/>
<path fill-rule="evenodd" clip-rule="evenodd" fill="#FFFFFF" d="M62.706,51.18c-14.336,0-28.554,0-42.844,0
	c0-1.064,0-2.081,0-3.175c14.274,0,28.521,0,42.844,0C62.706,49.062,62.706,50.076,62.706,51.18z"/>
<path fill-rule="evenodd" clip-rule="evenodd" fill="#FFFFFF" d="M62.735,55.714c0,1.075,0,2.062,0,3.127c-14.29,0-28.532,0-42.86,0
	c0-1.01,0-2.027,0-3.127C34.114,55.714,48.358,55.714,62.735,55.714z"/>
<path fill-rule="evenodd" clip-rule="evenodd" fill="#FFFFFF" d="M19.839,97.348c0-1.092,0-2.079,0-3.139
	c14.292,0,28.535,0,42.861,0c0,1.026,0,2.043,0,3.139C48.445,97.348,34.198,97.348,19.839,97.348z"/>
<path fill-rule="evenodd" clip-rule="evenodd" fill="#FFFFFF" d="M19.876,63.404c14.32,0,28.544,0,42.837,0c0,1.046,0,2.03,0,3.112
	c-14.247,0-28.499,0-42.837,0C19.876,65.53,19.876,64.517,19.876,63.404z"/>
<path fill-rule="evenodd" clip-rule="evenodd" fill="#FFFFFF" d="M62.722,71.138c0,1.069,0,2.051,0,3.102c-14.31,0-28.559,0-42.87,0
	c0-1.042,0-2.024,0-3.102C34.118,71.138,48.366,71.138,62.722,71.138z"/>
<path fill-rule="evenodd" clip-rule="evenodd" fill="#FFFFFF" d="M62.722,86.533c0,1.067,0,2.051,0,3.11c-14.31,0-28.56,0-42.871,0
	c0-1.049,0-2.034,0-3.11C34.114,86.533,48.365,86.533,62.722,86.533z"/>
<path fill-rule="evenodd" clip-rule="evenodd" fill="#FFFFFF" d="M19.851,81.922c0-1.084,0-2.067,0-3.114c14.284,0,28.507,0,42.83,0
	c0,0.998,0,2.009,0,3.114C48.443,81.922,34.193,81.922,19.851,81.922z"/>
</svg>
