<?xml version="1.0" encoding="utf-8"?>
<!-- Generator: Adobe Illustrator 16.0.0, SVG Export Plug-In . SVG Version: 6.00 Build 0)  -->
<!DOCTYPE svg PUBLIC "-//W3C//DTD SVG 1.1//EN" "http://www.w3.org/Graphics/SVG/1.1/DTD/svg11.dtd">
<svg version="1.1" id="Layer_1" xmlns="http://www.w3.org/2000/svg" xmlns:xlink="http://www.w3.org/1999/xlink" x="0px" y="0px"
	 width="1920px" height="1080px" viewBox="0 0 1920 1080" enable-background="new 0 0 1920 1080" xml:space="preserve">
<g>
	<path fill-rule="evenodd" clip-rule="evenodd" fill="#FFFFFF" d="M817.06,498.003c0.14-0.535,0.31-1.064,0.416-1.605
		c0.958-4.896,4.581-8.122,9.588-8.16c11.036-0.086,22.074-0.012,33.109-0.056c1.583-0.007,2.119,0.579,2.18,2.152
		c0.284,7.262,0.322,7.26-6.823,7.26c-8.584,0.002-17.168,0.002-25.752,0.002c-0.881,0-1.763,0-2.824,0c0,4.918,0,9.608,0,14.626
		c0.881,0,1.749,0,2.617,0c8.176,0,16.351-0.022,24.526,0.008c6.596,0.024,10.535,3.945,10.581,10.501
		c0.031,4.414,0.066,8.831-0.018,13.244c-0.106,5.555-4.085,9.603-9.637,9.644c-11.036,0.084-22.073,0.004-33.108,0.063
		c-1.71,0.01-2.377-0.607-2.296-2.285c0.074-1.549,0.101-3.111-0.007-4.657c-0.138-1.957,0.699-2.515,2.591-2.502
		c10.054,0.073,20.11,0.035,30.165,0.035c0.882,0,1.762,0,2.787,0c0-4.93,0-9.62,0-14.625c-0.984,0-1.857,0-2.729,0
		c-7.44,0-14.878,0-22.318,0c-8.464,0-10.64-1.57-13.045-9.413C817.06,507.489,817.06,502.747,817.06,498.003z"/>
	<path fill-rule="evenodd" clip-rule="evenodd" fill="#FFFFFF" d="M901.373,531.458c0.484-1.057,0.833-1.764,1.136-2.488
		c5.219-12.501,10.485-24.984,15.602-37.528c0.985-2.413,2.34-3.354,4.956-3.292c6.308,0.149,6.31,0.04,6.31,6.409
		c0,16.023-0.041,32.047,0.046,48.069c0.012,2.33-0.636,3.125-3.036,3.078c-6.432-0.121-6.434-0.02-6.434-6.469
		c0-7.932,0-15.86,0-23.791c0-0.778,0-1.56,0-2.338c-0.15-0.038-0.298-0.074-0.448-0.112c-0.315,0.691-0.65,1.374-0.943,2.075
		c-3.882,9.256-7.805,18.497-11.601,27.789c-0.833,2.041-1.984,2.896-4.22,2.832c-6.313-0.186-5.389,0.789-7.951-5.305
		c-3.511-8.351-6.984-16.719-10.478-25.075c-0.337-0.809-0.702-1.605-1.479-2.368c0,0.757,0,1.514,0,2.271
		c0,9.32-0.047,18.639,0.037,27.958c0.017,1.953-0.629,2.656-2.546,2.506c-1.626-0.125-3.271-0.082-4.903-0.01
		c-1.504,0.066-1.995-0.602-1.993-2.049c0.027-17.821,0.024-35.644,0.006-53.464c-0.001-1.313,0.45-2.033,1.843-1.953
		c0.163,0.01,0.327-0.002,0.49,0c8.773,0.118,6.938-1.162,10.236,6.644c4.733,11.199,9.36,22.444,14.039,33.668
		C900.406,529.385,900.818,530.235,901.373,531.458z"/>
	<path fill-rule="evenodd" clip-rule="evenodd" fill="#FFFFFF" d="M1279.499,497.596c0,13.099,0,25.745,0,38.532
		c9.425,0,18.709,0,28.206,0c0-4.69,0-9.38,0-14.481c-0.827,0-1.682,0-2.54,0c-5.231,0-10.467-0.074-15.698,0.037
		c-1.977,0.042-2.628-0.688-2.504-2.571c0.111-1.709-0.132-3.456,0.116-5.138c0.1-0.653,1.114-1.665,1.721-1.673
		c7.931-0.11,15.862-0.124,23.793-0.032c2.728,0.032,4.588,1.671,4.64,4.415c0.133,7.022,0.2,14.063-0.167,21.073
		c-0.22,4.185-4.261,7.733-8.494,7.796c-9.892,0.146-19.787,0.152-29.679,0.01c-4.705-0.07-8.777-4.119-8.83-8.882
		c-0.144-13.163-0.147-26.331,0.004-39.495c0.057-4.824,4.186-8.829,9.113-8.901c11.281-0.166,22.57-0.058,33.856-0.096
		c1.474-0.006,2.084,0.621,2.04,2.061c-0.039,1.39-0.132,2.793,0.021,4.167c0.271,2.42-0.539,3.272-3.104,3.236
		c-9.892-0.144-19.787-0.06-29.683-0.058C1281.436,497.596,1280.558,497.596,1279.499,497.596z"/>
	<path fill-rule="evenodd" clip-rule="evenodd" fill="#FFFFFF" d="M1251.809,530.24c0-1.512,0-2.284,0-3.06
		c0-11.932,0.061-23.864-0.052-35.795c-0.023-2.406,0.535-3.309,3.111-3.244c6.345,0.159,6.35,0.038,6.35,6.321
		c0,16.1-0.04,32.201,0.044,48.3c0.008,2.211-0.56,2.975-2.876,2.945c-7.587-0.096-7.587-0.006-11.884-6.309
		c-7.496-11.003-14.991-22.004-22.495-33.004c-0.483-0.713-1.002-1.402-2.001-2.001c0,0.854,0,1.709,0,2.565
		c0,11.933-0.044,23.865,0.044,35.795c0.013,2.186-0.519,3-2.867,2.955c-6.589-0.121-6.589-0.016-6.589-6.574
		c0-15.938,0.052-31.874-0.052-47.812c-0.017-2.498,0.73-3.251,3.202-3.169c8.886,0.296,6.278-1.3,11.313,5.992
		c7.655,11.09,15.195,22.261,22.786,33.395C1250.331,528.253,1250.854,528.934,1251.809,530.24z"/>
	<path fill-rule="evenodd" clip-rule="evenodd" fill="#FFFFFF" d="M1397.561,497.596c0,5.016,0,9.656,0,14.626
		c0.958,0,1.825,0,2.691,0c8.179,0,16.353-0.022,24.531,0.008c6.598,0.024,10.543,3.943,10.587,10.499
		c0.032,4.414,0.067,8.831-0.017,13.244c-0.107,5.555-4.089,9.604-9.64,9.646c-11.038,0.084-22.075,0.004-33.113,0.063
		c-1.718,0.01-2.372-0.617-2.292-2.291c0.075-1.549,0.104-3.112-0.008-4.658c-0.137-1.967,0.719-2.508,2.6-2.493
		c10.055,0.071,20.114,0.033,30.17,0.033c0.879,0,1.757,0,2.779,0c0-4.939,0-9.628,0-14.625c-1.002,0-1.877,0-2.752,0
		c-8.094,0-16.188,0.021-24.283-0.007c-6.949-0.025-10.738-3.787-10.83-10.754c-0.052-3.926-0.048-7.851,0-11.774
		c0.084-7.076,3.93-10.895,10.978-10.906c10.467-0.016,20.93,0.04,31.396-0.042c2.017-0.016,2.699,0.596,2.699,2.646
		c-0.004,6.785,0.068,6.785-6.82,6.785c-8.586,0-17.172,0.002-25.754,0.002C1399.597,497.596,1398.711,497.596,1397.561,497.596z"/>
	<path fill-rule="evenodd" clip-rule="evenodd" fill="#FFFFFF" d="M1036.283,526.844c3.159,5.469,6.19,10.688,9.192,15.923
		c1.336,2.328,1.04,2.914-1.569,2.871c-9.422-0.152-6.646,1.406-11.323-6.345c-2.15-3.566-4.134-7.232-6.284-10.798
		c-0.402-0.665-1.229-1.514-1.875-1.528c-5.957-0.115-11.917-0.067-18.203-0.067c0,3.171,0,6.172,0,9.171
		c0,2.372-0.082,4.747,0.024,7.112c0.086,1.928-0.646,2.666-2.581,2.5c-1.623-0.141-3.27-0.07-4.902-0.02
		c-1.296,0.039-2.013-0.422-2.012-1.807c0.009-8.648,0.005-17.295,0.005-26.409c12.646,0,25.189,0,37.899,0
		c0-6.795,0-13.125,0-19.798c-12.594,0-25.118,0-37.838,0c0-1.864-0.143-3.41,0.031-4.922c0.32-2.777,2.085-4.471,4.918-4.486
		c11.035-0.063,22.072-0.122,33.106,0.034c5.237,0.075,9.226,4.24,9.331,9.498c0.129,6.455,0.148,12.919-0.002,19.372
		C1044.086,522.169,1041.119,525.174,1036.283,526.844z"/>
	<path fill-rule="evenodd" clip-rule="evenodd" fill="#FFFFFF" d="M951.77,521.646c6.277,0,12.07,0.071,17.862-0.044
		c1.693-0.032,2.513,0.435,2.855,2.122c0.467,2.307,1.151,4.568,1.835,7.198c-1.071,0.069-1.913,0.168-2.755,0.168
		c-6.62,0.014-13.24,0.056-19.858-0.026c-1.652-0.02-2.487,0.34-2.827,2.135c-0.603,3.202-1.581,6.331-2.288,9.517
		c-0.456,2.059-1.439,2.998-3.699,2.984c-6.689-0.047-6.716,0.031-5.113-6.559c3.241-13.318,6.502-26.633,9.779-39.942
		c1.827-7.424,6.412-10.688,14.07-11.063c11.982-0.583,16.015,4.414,18.172,14.082c3.02,13.536,6.542,26.958,9.844,40.43
		c0.668,2.729,0.464,3.01-2.274,3.002c-7.439-0.025-6.499,0.807-8.306-6.492c-3.06-12.355-6.037-24.729-9.069-37.093
		c-0.952-3.882-1.734-4.459-5.765-4.469c-6.628-0.018-6.636-0.02-8.193,6.371C954.632,509.741,953.249,515.522,951.77,521.646z"/>
	<path fill-rule="evenodd" clip-rule="evenodd" fill="#FFFFFF" d="M1453.959,512.521c9.692,0,18.977,0,28.514,0
		c0-1.903,0-3.681,0-5.457c0-4.088,0-8.175,0-12.262c0-6.927,1.113-7.871,7.99-6.518c0.575,0.113,1.334,1.146,1.374,1.793
		c0.163,2.523,0.071,5.063,0.071,7.598c0,15.039-0.039,30.078,0.044,45.118c0.013,2.246-0.635,2.951-2.915,2.912
		c-6.561-0.111-6.564-0.016-6.564-6.59c0-5.556,0-11.11,0-16.857c-9.445,0-18.793,0-28.514,0c0,0.803,0,1.663,0,2.522
		c0,6.13-0.06,12.262,0.036,18.39c0.028,1.951-0.663,2.656-2.571,2.506c-1.546-0.119-3.111-0.109-4.656-0.002
		c-1.762,0.125-2.24-0.664-2.236-2.309c0.035-17.573,0.043-35.146-0.013-52.719c-0.008-1.987,0.739-2.482,2.604-2.482
		c6.836-0.008,6.836-0.063,6.836,6.827C1453.959,500.778,1453.959,506.564,1453.959,512.521z"/>
	<path fill-rule="evenodd" clip-rule="evenodd" fill="#FFFFFF" d="M1120.629,517.363c-6.891-8.729-13.637-17.246-20.332-25.802
		c-0.597-0.765-0.858-1.795-1.275-2.701c0.986-0.22,1.969-0.47,2.963-0.653c5.539-1.026,9.257,1.196,12.381,5.862
		c3.621,5.401,8.01,10.285,12.278,15.66c1.003-1.25,1.86-2.304,2.706-3.37c4.261-5.383,8.547-10.746,12.754-16.172
		c1.101-1.421,2.326-2.144,4.16-2.015c1.788,0.128,3.602-0.052,5.391,0.063c0.889,0.058,1.753,0.471,2.628,0.725
		c-0.352,0.783-0.567,1.673-1.078,2.33c-5.591,7.146-11.229,14.255-16.851,21.375c-1.212,1.537-2.418,3.081-3.696,4.71
		c6.438,8.141,12.839,16.197,19.183,24.302c0.761,0.971,1.204,2.191,1.795,3.295c-1.226,0.229-2.447,0.467-3.674,0.68
		c-4.947,0.854-8.348-0.979-11.201-5.23c-3.58-5.331-7.899-10.167-12.096-15.464c-3.245,4.077-6.328,7.948-9.409,11.822
		c-1.881,2.366-3.63,4.86-5.702,7.048c-0.883,0.936-2.389,1.572-3.69,1.75c-2.089,0.285-4.245,0.113-6.367,0.049
		c-0.593-0.016-1.619-0.248-1.671-0.529c-0.116-0.607,0.09-1.449,0.477-1.953c2.785-3.633,5.648-7.203,8.488-10.795
		C1112.687,527.416,1116.584,522.482,1120.629,517.363z"/>
	<path fill-rule="evenodd" clip-rule="evenodd" fill="#FFFFFF" d="M1170.747,522.065c0,4.896,0,9.376,0,14.206
		c0.962,0,1.829,0,2.695,0c9.229,0,18.462,0.064,27.69-0.048c2.196-0.025,2.939,0.691,2.743,2.813
		c-0.144,1.539-0.08,3.104-0.016,4.654c0.063,1.498-0.604,1.988-2.053,1.98c-10.459-0.047-20.914,0.049-31.368-0.086
		c-5.399-0.07-9.189-4.379-9.261-10.3c-0.088-7.024-0.024-14.051-0.017-21.075c0-0.397,0.057-0.792,0.104-1.401
		c0.854-0.054,1.637-0.146,2.42-0.146c12.419-0.01,24.835,0.04,37.25-0.05c2.192-0.019,3.223,0.519,2.939,2.856
		c-0.147,1.208-0.151,2.463,0,3.671c0.304,2.453-0.795,3.001-3.079,2.971c-9.064-0.114-18.134-0.046-27.203-0.046
		C1172.716,522.065,1171.837,522.065,1170.747,522.065z"/>
	<path fill-rule="evenodd" clip-rule="evenodd" fill="#FFFFFF" d="M1068.017,497.594c-4.249,0-8.155-0.094-12.056,0.04
		c-1.987,0.067-2.637-0.659-2.483-2.56c0.126-1.542,0.103-3.109,0.007-4.654c-0.107-1.745,0.667-2.251,2.325-2.242
		c11.277,0.048,22.554,0.054,33.831-0.007c1.809-0.01,2.418,0.611,2.464,2.406c0.178,7.019,0.226,7.017-6.849,7.017
		c-2.438,0-4.876,0-7.703,0c0,1.118,0,2.059,0,2.999c0,13.973-0.055,27.948,0.052,41.922c0.017,2.459-0.663,3.256-3.177,3.195
		c-6.408-0.15-6.411-0.035-6.411-6.521c0-12.831,0-25.66,0-38.491C1068.017,499.748,1068.017,498.8,1068.017,497.594z"/>
	<path fill-rule="evenodd" clip-rule="evenodd" fill="#FFFFFF" d="M1335.87,536.271c7.632,0,14.899,0.101,22.163-0.056
		c2.484-0.054,3.255,0.673,3.199,3.17c-0.144,6.266-0.032,6.27-6.414,6.268c-6.05,0-12.1,0.037-18.149-0.012
		c-6.158-0.051-10.167-3.965-10.191-10.114c-0.06-14.96,0-29.919-0.044-44.88c-0.008-1.76,0.535-2.452,2.385-2.482
		c7.052-0.119,7.052-0.174,7.052,6.831c0,12.671,0,25.342,0,38.011C1335.87,533.976,1335.87,534.942,1335.87,536.271z"/>
	<path fill-rule="evenodd" clip-rule="evenodd" fill="#FFFFFF" d="M1369.507,516.874c0-8.574,0.056-17.149-0.04-25.724
		c-0.02-2.133,0.432-3.051,2.835-3.007c6.598,0.117,6.602,0.008,6.602,6.571c0,16.005-0.036,32.011,0.04,48.017
		c0.012,2.182-0.508,3.016-2.855,2.977c-6.581-0.109-6.581-0.008-6.581-6.539C1369.507,531.737,1369.507,524.306,1369.507,516.874z"
		/>
	<path fill-rule="evenodd" clip-rule="evenodd" fill="#FFFFFF" d="M1161.358,497.605c0.407-5.361,4.053-9.236,9.029-9.318
		c10.538-0.174,21.081-0.06,31.619-0.096c1.406-0.004,1.777,0.663,1.861,1.955c0.467,7.449,0.491,7.447-6.856,7.449
		c-11.034,0.002-22.063,0.006-33.094,0.01C1163.115,497.605,1162.313,497.605,1161.358,497.605z"/>
</g>
<path fill-rule="evenodd" clip-rule="evenodd" fill="#FFFFFF" d="M660.169,461.951c0.558,0,1.065,0,1.572,0
	c15.837,0,31.675,0.04,47.512-0.024c5.044-0.02,8.669,2.295,11.444,6.27c0.523,0.75,0.957,1.563,1.492,2.447
	c0.516-0.835,0.971-1.655,1.504-2.421c2.77-3.977,6.385-6.313,11.431-6.293c15.837,0.061,31.675,0.022,47.512,0.022
	c0.511,0,1.021,0,1.604,0c0,32.871,0,65.599,0,98.461c-0.547,0-1.016,0-1.484,0c-15.677-0.004-31.355,0.08-47.031-0.063
	c-4.969-0.046-8.162,2.279-10.365,6.369c-0.818,1.52-1.326,3.206-2.037,4.969c-0.646,0-1.589,0-2.523,0
	c-0.603-3.552-2.177-6.54-4.812-8.913c-1.745-1.572-3.798-2.394-6.217-2.389c-16.037,0.033-32.075,0.023-48.112,0.027
	c-0.471,0-0.941,0-1.489,0C660.169,527.563,660.169,494.835,660.169,461.951z M781.234,464.944c-0.554,0-1.025,0-1.497,0
	c-14.957,0-29.913,0-44.869,0c-5.441,0-11.147,5.697-11.149,11.166c-0.006,28.672-0.003,57.345,0.001,86.018
	c0,0.333,0.045,0.666,0.072,1.046c0.174-0.09,0.261-0.109,0.308-0.163c0.313-0.362,0.605-0.744,0.929-1.099
	c2.62-2.878,5.769-4.565,9.768-4.558c14.996,0.03,29.993,0.017,44.989,0.02c0.466,0,0.932,0,1.449,0
	C781.234,526.531,781.234,495.83,781.234,464.944z M663.213,464.944c0,30.885,0,61.611,0,92.43c0.558,0,1.031,0,1.503,0
	c14.955-0.003,29.91,0.015,44.865-0.024c3.295-0.009,6.06,1.165,8.509,3.267c0.86,0.737,1.732,1.46,2.545,2.145
	c0-0.288,0-0.795,0-1.302c0-27.83-0.037-55.661,0.052-83.492c0.01-3.139-0.868-5.811-2.594-8.274
	c-2.137-3.05-4.954-4.794-8.865-4.776c-14.835,0.069-29.67,0.028-44.505,0.028C664.25,464.944,663.777,464.944,663.213,464.944z"/>
<path fill-rule="evenodd" clip-rule="evenodd" fill="none" d="M781.234,464.944c0,30.885,0,61.586,0,92.43c-0.518,0-0.983,0-1.449,0
	c-14.996-0.003-29.993,0.011-44.989-0.02c-3.999-0.008-7.147,1.68-9.768,4.558c-0.323,0.354-0.615,0.736-0.929,1.099
	c-0.047,0.054-0.134,0.073-0.308,0.163c-0.027-0.38-0.072-0.713-0.072-1.046c-0.004-28.673-0.007-57.346-0.001-86.018
	c0.002-5.468,5.708-11.166,11.149-11.166c14.956,0,29.912,0,44.869,0C780.209,464.944,780.681,464.944,781.234,464.944z
	 M774.241,472.72c-14.342,0-28.595,0-42.883,0c0,1.095,0,2.113,0,3.172c14.326,0,28.579,0,42.883,0
	C774.241,474.827,774.241,473.836,774.241,472.72z M731.359,483.56c14.377,0,28.628,0,42.838,0c0-1.117,0-2.134,0-3.162
	c-14.318,0-28.54,0-42.838,0C731.359,481.477,731.359,482.495,731.359,483.56z M731.359,491.25c14.379,0,28.63,0,42.835,0
	c0-1.115,0-2.131,0-3.157c-14.318,0-28.54,0-42.835,0C731.359,489.175,731.359,490.192,731.359,491.25z M731.363,498.941
	c14.313,0,28.591,0,42.828,0c0-1.111,0-2.123,0-3.149c-14.317,0-28.533,0-42.828,0C731.363,496.869,731.363,497.884,731.363,498.941
	z M731.369,503.485c0,1.119,0,2.134,0,3.167c14.329,0,28.573,0,42.842,0c0-1.087,0-2.099,0-3.167
	C759.918,503.485,745.706,503.485,731.369,503.485z M774.236,511.207c-14.353,0-28.596,0-42.865,0c0,1.092,0,2.105,0,3.138
	c14.328,0,28.569,0,42.865,0C774.236,513.287,774.236,512.301,774.236,511.207z M731.348,549.697c0,1.109,0,2.097,0,3.122
	c14.336,0,28.607,0,42.883,0c0-1.089,0-2.073,0-3.122C759.926,549.697,745.684,549.697,731.348,549.697z M774.222,518.921
	c-14.32,0-28.568,0-42.842,0c0,1.093,0,2.101,0,3.091c14.344,0,28.592,0,42.842,0C774.222,520.931,774.222,519.949,774.222,518.921z
	 M731.344,545.151c14.36,0,28.583,0,42.875,0c0-1.078,0-2.092,0-3.132c-14.326,0-28.578,0-42.875,0
	C731.344,543.081,731.344,544.063,731.344,545.151z M731.344,537.402c14.387,0,28.633,0,42.873,0c0-1.092,0-2.072,0-3.079
	c-14.325,0-28.575,0-42.873,0C731.344,535.386,731.344,536.368,731.344,537.402z M774.224,526.617c-14.316,0-28.563,0-42.847,0
	c0,1.084,0,2.093,0,3.094c14.339,0,28.586,0,42.847,0C774.224,528.633,774.224,527.652,774.224,526.617z"/>
<path fill-rule="evenodd" clip-rule="evenodd" fill="none" d="M663.213,464.944c0.563,0,1.037,0,1.511,0
	c14.835,0,29.67,0.041,44.505-0.028c3.911-0.018,6.728,1.726,8.865,4.776c1.726,2.464,2.604,5.135,2.594,8.274
	c-0.089,27.831-0.052,55.662-0.052,83.492c0,0.507,0,1.014,0,1.302c-0.813-0.685-1.686-1.407-2.545-2.145
	c-2.449-2.102-5.214-3.275-8.509-3.267c-14.955,0.039-29.91,0.021-44.865,0.024c-0.473,0-0.946,0-1.503,0
	C663.213,526.555,663.213,495.829,663.213,464.944z M670.174,475.884c14.373,0,28.626,0,42.876,0c0-1.105,0-2.125,0-3.154
	c-14.333,0-28.586,0-42.876,0C670.174,473.808,670.174,474.8,670.174,475.884z M713.091,480.425c-14.383,0-28.635,0-42.874,0
	c0,1.113,0,2.133,0,3.147c14.335,0,28.589,0,42.874,0C713.091,482.495,713.091,481.502,713.091,480.425z M670.177,491.27
	c14.362,0,28.616,0,42.874,0c0-1.097,0-2.115,0-3.157c-14.33,0-28.582,0-42.874,0C670.177,489.19,670.177,490.182,670.177,491.27z
	 M670.177,498.955c14.375,0,28.624,0,42.866,0c0-1.098,0-2.113,0-3.14c-14.335,0-28.584,0-42.866,0
	C670.177,496.895,670.177,497.885,670.177,498.955z M713.054,506.677c0-1.104,0-2.118,0-3.175c-14.323,0-28.57,0-42.844,0
	c0,1.094,0,2.111,0,3.175C684.5,506.677,698.717,506.677,713.054,506.677z M713.083,511.211c-14.376,0-28.621,0-42.86,0
	c0,1.101,0,2.118,0,3.127c14.328,0,28.57,0,42.86,0C713.083,513.273,713.083,512.286,713.083,511.211z M670.187,552.846
	c14.359,0,28.606,0,42.861,0c0-1.097,0-2.113,0-3.14c-14.326,0-28.568,0-42.861,0C670.187,550.767,670.187,551.754,670.187,552.846z
	 M670.224,518.901c0,1.113,0,2.127,0,3.113c14.338,0,28.59,0,42.837,0c0-1.082,0-2.066,0-3.113
	C698.768,518.901,684.544,518.901,670.224,518.901z M713.069,526.635c-14.355,0-28.604,0-42.87,0c0,1.078,0,2.061,0,3.102
	c14.312,0,28.561,0,42.87,0C713.069,528.687,713.069,527.705,713.069,526.635z M713.069,542.03c-14.356,0-28.608,0-42.871,0
	c0,1.076,0,2.061,0,3.11c14.311,0,28.561,0,42.871,0C713.069,544.081,713.069,543.098,713.069,542.03z M670.199,537.42
	c14.342,0,28.592,0,42.83,0c0-1.105,0-2.117,0-3.114c-14.323,0-28.546,0-42.83,0C670.199,535.353,670.199,536.336,670.199,537.42z"
	/>
<path fill-rule="evenodd" clip-rule="evenodd" fill="#FFFFFF" d="M774.241,472.72c0,1.117,0,2.107,0,3.172
	c-14.304,0-28.557,0-42.883,0c0-1.059,0-2.077,0-3.172C745.646,472.72,759.899,472.72,774.241,472.72z"/>
<path fill-rule="evenodd" clip-rule="evenodd" fill="#FFFFFF" d="M731.359,483.56c0-1.064,0-2.083,0-3.162
	c14.298,0,28.52,0,42.838,0c0,1.028,0,2.045,0,3.162C759.987,483.56,745.736,483.56,731.359,483.56z"/>
<path fill-rule="evenodd" clip-rule="evenodd" fill="#FFFFFF" d="M731.359,491.25c0-1.058,0-2.075,0-3.157
	c14.295,0,28.517,0,42.835,0c0,1.026,0,2.042,0,3.157C759.989,491.25,745.738,491.25,731.359,491.25z"/>
<path fill-rule="evenodd" clip-rule="evenodd" fill="#FFFFFF" d="M731.363,498.941c0-1.057,0-2.072,0-3.149
	c14.295,0,28.511,0,42.828,0c0,1.026,0,2.039,0,3.149C759.954,498.941,745.677,498.941,731.363,498.941z"/>
<path fill-rule="evenodd" clip-rule="evenodd" fill="#FFFFFF" d="M731.369,503.485c14.337,0,28.549,0,42.842,0
	c0,1.068,0,2.08,0,3.167c-14.269,0-28.513,0-42.842,0C731.369,505.619,731.369,504.604,731.369,503.485z"/>
<path fill-rule="evenodd" clip-rule="evenodd" fill="#FFFFFF" d="M774.236,511.207c0,1.094,0,2.08,0,3.138
	c-14.296,0-28.537,0-42.865,0c0-1.032,0-2.045,0-3.138C745.641,511.207,759.884,511.207,774.236,511.207z"/>
<path fill-rule="evenodd" clip-rule="evenodd" fill="#FFFFFF" d="M731.348,549.697c14.336,0,28.578,0,42.883,0
	c0,1.049,0,2.033,0,3.122c-14.275,0-28.547,0-42.883,0C731.348,551.794,731.348,550.807,731.348,549.697z"/>
<path fill-rule="evenodd" clip-rule="evenodd" fill="#FFFFFF" d="M774.222,518.921c0,1.028,0,2.01,0,3.091
	c-14.25,0-28.498,0-42.842,0c0-0.99,0-1.999,0-3.091C745.653,518.921,759.901,518.921,774.222,518.921z"/>
<path fill-rule="evenodd" clip-rule="evenodd" fill="#FFFFFF" d="M731.344,545.151c0-1.088,0-2.07,0-3.132
	c14.297,0,28.549,0,42.875,0c0,1.04,0,2.054,0,3.132C759.927,545.151,745.704,545.151,731.344,545.151z"/>
<path fill-rule="evenodd" clip-rule="evenodd" fill="#FFFFFF" d="M731.344,537.402c0-1.034,0-2.016,0-3.079
	c14.298,0,28.548,0,42.873,0c0,1.007,0,1.987,0,3.079C759.977,537.402,745.73,537.402,731.344,537.402z"/>
<path fill-rule="evenodd" clip-rule="evenodd" fill="#FFFFFF" d="M774.224,526.617c0,1.035,0,2.016,0,3.094
	c-14.261,0-28.508,0-42.847,0c0-1,0-2.009,0-3.094C745.66,526.617,759.907,526.617,774.224,526.617z"/>
<path fill-rule="evenodd" clip-rule="evenodd" fill="#FFFFFF" d="M670.174,475.884c0-1.083,0-2.076,0-3.154
	c14.29,0,28.543,0,42.876,0c0,1.029,0,2.049,0,3.154C698.8,475.884,684.546,475.884,670.174,475.884z"/>
<path fill-rule="evenodd" clip-rule="evenodd" fill="#FFFFFF" d="M713.091,480.425c0,1.077,0,2.069,0,3.147
	c-14.284,0-28.539,0-42.874,0c0-1.014,0-2.034,0-3.147C684.456,480.425,698.708,480.425,713.091,480.425z"/>
<path fill-rule="evenodd" clip-rule="evenodd" fill="#FFFFFF" d="M670.177,491.27c0-1.088,0-2.08,0-3.157
	c14.292,0,28.544,0,42.874,0c0,1.042,0,2.06,0,3.157C698.793,491.27,684.539,491.27,670.177,491.27z"/>
<path fill-rule="evenodd" clip-rule="evenodd" fill="#FFFFFF" d="M670.177,498.955c0-1.07,0-2.061,0-3.14c14.282,0,28.53,0,42.866,0
	c0,1.026,0,2.042,0,3.14C698.801,498.955,684.551,498.955,670.177,498.955z"/>
<path fill-rule="evenodd" clip-rule="evenodd" fill="#FFFFFF" d="M713.054,506.677c-14.336,0-28.554,0-42.844,0
	c0-1.064,0-2.081,0-3.175c14.274,0,28.521,0,42.844,0C713.054,504.56,713.054,505.573,713.054,506.677z"/>
<path fill-rule="evenodd" clip-rule="evenodd" fill="#FFFFFF" d="M713.083,511.211c0,1.075,0,2.062,0,3.127
	c-14.29,0-28.532,0-42.86,0c0-1.01,0-2.027,0-3.127C684.462,511.211,698.706,511.211,713.083,511.211z"/>
<path fill-rule="evenodd" clip-rule="evenodd" fill="#FFFFFF" d="M670.187,552.846c0-1.092,0-2.079,0-3.14
	c14.292,0,28.535,0,42.861,0c0,1.026,0,2.043,0,3.14C698.792,552.846,684.546,552.846,670.187,552.846z"/>
<path fill-rule="evenodd" clip-rule="evenodd" fill="#FFFFFF" d="M670.224,518.901c14.32,0,28.544,0,42.837,0
	c0,1.047,0,2.031,0,3.113c-14.247,0-28.499,0-42.837,0C670.224,521.028,670.224,520.014,670.224,518.901z"/>
<path fill-rule="evenodd" clip-rule="evenodd" fill="#FFFFFF" d="M713.069,526.635c0,1.069,0,2.051,0,3.102
	c-14.31,0-28.559,0-42.87,0c0-1.042,0-2.024,0-3.102C684.466,526.635,698.714,526.635,713.069,526.635z"/>
<path fill-rule="evenodd" clip-rule="evenodd" fill="#FFFFFF" d="M713.069,542.03c0,1.067,0,2.051,0,3.11c-14.31,0-28.56,0-42.871,0
	c0-1.05,0-2.034,0-3.11C684.461,542.03,698.713,542.03,713.069,542.03z"/>
<path fill-rule="evenodd" clip-rule="evenodd" fill="#FFFFFF" d="M670.199,537.42c0-1.084,0-2.067,0-3.114
	c14.284,0,28.507,0,42.83,0c0,0.997,0,2.009,0,3.114C698.791,537.42,684.541,537.42,670.199,537.42z"/>
</svg>
